<?xml version="1.0" encoding="UTF-8" standalone="no"?>
<svg
   height="24px"
   viewBox="0 -960 960 960"
   width="24px"
   fill="#1f1f1f"
   version="1.1"
   id="svg1"
   sodipodi:docname="icon.svg"
   inkscape:version="1.4.3 (0d15f75042, 2025-12-25)"
   xmlns:inkscape="http://www.inkscape.org/namespaces/inkscape"
   xmlns:sodipodi="http://sodipodi.sourceforge.net/DTD/sodipodi-0.dtd"
   xmlns="http://www.w3.org/2000/svg"
   xmlns:svg="http://www.w3.org/2000/svg">
  <defs
     id="defs1" />
  <sodipodi:namedview
     id="namedview1"
     pagecolor="#ffffff"
     bordercolor="#000000"
     borderopacity="0.25"
     inkscape:showpageshadow="2"
     inkscape:pageopacity="0.0"
     inkscape:pagecheckerboard="0"
     inkscape:deskcolor="#d1d1d1"
     inkscape:zoom="10.017346"
     inkscape:cx="-0.79861472"
     inkscape:cy="13.27697"
     inkscape:window-width="1707"
     inkscape:window-height="888"
     inkscape:window-x="0"
     inkscape:window-y="0"
     inkscape:window-maximized="1"
     inkscape:current-layer="svg1" />
  <path
     d="M 96,-288 V -864 Z"
     id="path6"
     style="stroke-width:1.2" />
  <path
     d="M 96,-192 Q 56.4,-192 28.2,-220.2 0,-248.4 0,-288 V -864 Q 0,-903.6 28.2,-931.8 56.4,-960 96,-960 h 816 q 20.4,0 34.2,13.8 13.8,13.8 13.8,34.2 0,20.4 -13.8,34.2 Q 932.4,-864 912,-864 H 96 v 576 h 193.2 q 20.4,0 34.2,13.8 13.8,13.8 13.8,34.2 0,20.4 -13.8,34.2 -13.8,13.8 -34.2,13.8 z"
     id="path5"
     style="stroke-width:1.2" />
  <path
     d="M 508.8,-76.8 Q 432,-153.6 432,-264 v -144 q 0,-110.4 76.8,-187.2 76.8,-76.8 187.2,-76.8 110.4,0 187.2,76.8 76.8,76.8 76.8,187.2 v 144 q 0,110.4 -76.8,187.2 Q 806.4,0 696,0 585.6,0 508.8,-76.8 Z m 306,-68.4 Q 864,-194.4 864,-264 v -72 H 528 v 72 q 0,69.6 49.2,118.8 49.2,49.2 118.8,49.2 69.6,0 118.8,-49.2 z M 529.2,-432 H 648 v -136.8 q -45.6,13.2 -78.6,50.4 -33,37.2 -40.2,86.4 z m 214.8,0 h 118.8 q -7.2,-49.2 -40.2,-86.4 -33,-37.2 -78.6,-50.4 z"
     id="path1"
     style="fill:#660080;stroke-width:1.2" />
  <path
     d="m 370.2,-541.8 q 13.8,-13.8 13.8,-34.2 0,-20.4 -13.8,-34.2 -13.8,-13.8 -34.2,-13.8 -20.4,0 -34.2,13.8 -13.8,13.8 -13.8,34.2 0,20.4 13.8,34.2 13.8,13.8 34.2,13.8 20.4,0 34.2,-13.8 z"
     id="path8"
     style="stroke-width:1.2" />
  <path
     d="m 226.2,-541.8 q 13.8,-13.8 13.8,-34.2 0,-20.4 -13.8,-34.2 -13.8,-13.8 -34.2,-13.8 -20.4,0 -34.2,13.8 -13.8,13.8 -13.8,34.2 0,20.4 13.8,34.2 13.8,13.8 34.2,13.8 20.4,0 34.2,-13.8 z"
     id="path7"
     style="stroke-width:1.2" />
  <path
     d="m 514.2,-685.8 q 13.8,-13.8 13.8,-34.2 0,-20.4 -13.8,-34.2 -13.8,-13.8 -34.2,-13.8 -20.4,0 -34.2,13.8 -13.8,13.8 -13.8,34.2 0,20.4 13.8,34.2 13.8,13.8 34.2,13.8 20.4,0 34.2,-13.8 z"
     id="path4"
     style="stroke-width:1.2" />
  <path
     d="m 370.2,-685.8 q 13.8,-13.8 13.8,-34.2 0,-20.4 -13.8,-34.2 -13.8,-13.8 -34.2,-13.8 -20.4,0 -34.2,13.8 -13.8,13.8 -13.8,34.2 0,20.4 13.8,34.2 13.8,13.8 34.2,13.8 20.4,0 34.2,-13.8 z"
     id="path3"
     style="stroke-width:1.2" />
  <path
     d="m 226.2,-685.8 q 13.8,-13.8 13.8,-34.2 0,-20.4 -13.8,-34.2 -13.8,-13.8 -34.2,-13.8 -20.4,0 -34.2,13.8 -13.8,13.8 -13.8,34.2 0,20.4 13.8,34.2 13.8,13.8 34.2,13.8 20.4,0 34.2,-13.8 z"
     id="path2"
     style="stroke-width:1.2" />
</svg>
