<?xml version="1.0" encoding="UTF-8" standalone="no"?>
<svg
   height="24px"
   viewBox="0 -960 960 960"
   width="24px"
   fill="#1f1f1f"
   version="1.1"
   id="svg1"
   sodipodi:docname="icon.svg"
   inkscape:version="1.4.2 (f4327f4, 2025-05-13)"
   xmlns:inkscape="http://www.inkscape.org/namespaces/inkscape"
   xmlns:sodipodi="http://sodipodi.sourceforge.net/DTD/sodipodi-0.dtd"
   xmlns="http://www.w3.org/2000/svg"
   xmlns:svg="http://www.w3.org/2000/svg">
  <defs
     id="defs1" />
  <sodipodi:namedview
     id="namedview1"
     pagecolor="#ffffff"
     bordercolor="#000000"
     borderopacity="0.25"
     inkscape:showpageshadow="2"
     inkscape:pageopacity="0.0"
     inkscape:pagecheckerboard="0"
     inkscape:deskcolor="#d1d1d1"
     inkscape:zoom="43.75"
     inkscape:cx="12.034286"
     inkscape:cy="12.022857"
     inkscape:window-width="2560"
     inkscape:window-height="1334"
     inkscape:window-x="-11"
     inkscape:window-y="-11"
     inkscape:window-maximized="1"
     inkscape:current-layer="svg1" />
  <circle
     style="fill:#5f96d3;fill-opacity:1;stroke-width:24;stroke-linecap:square;paint-order:markers fill stroke"
     id="circle3"
     cx="842.60571"
     cy="-144"
     r="74.605721" />
  <circle
     style="fill:#8c5fd3;fill-opacity:1;stroke-width:24;stroke-linecap:square;paint-order:markers fill stroke"
     id="circle2"
     cx="480"
     cy="-144.27426"
     r="74.605721" />
  <circle
     style="fill:#5fd35f;stroke-width:24;stroke-linecap:square;paint-order:markers fill stroke"
     id="path2"
     cx="143.17714"
     cy="-138.78854"
     r="74.605721" />
  <path
     d="M 144,0 Q 84,0 42,-42 0,-84 0,-144 q 0,-46.8 27,-84 27,-37.2 69,-51.6 V -384 q 0,-60 42,-102 42,-42 102,-42 h 192 v -152.4 q -42,-14.4 -69,-51.6 -27,-37.2 -27,-84 0,-60 42,-102 42,-42 102,-42 60,0 102,42 42,42 42,102 0,46.8 -27,84 -27,37.2 -69,51.6 V -528 h 192 q 60,0 102,42 42,42 42,102 v 104.4 q 42,14.4 69,51.6 27,37.2 27,84 0,60 -42,102 -42,42 -102,42 -60,0 -102,-42 -42,-42 -42,-102 0,-46.8 27,-84 27,-37.2 69,-51.6 V -384 q 0,-20.4 -13.8,-34.2 Q 740.4,-432 720,-432 H 528 v 152.4 q 42,14.4 69,51.6 27,37.2 27,84 0,60 -42,102 -42,42 -102,42 -60,0 -102,-42 -42,-42 -42,-102 0,-46.8 27,-84 27,-37.2 69,-51.6 V -432 H 240 q -20.4,0 -34.2,13.8 -13.8,13.8 -13.8,34.2 v 104.4 q 42,14.4 69,51.6 27,37.2 27,84 0,60 -42,102 Q 204,0 144,0 Z m 0,-96 q 20.4,0 34.2,-13.8 13.8,-13.8 13.8,-34.2 0,-20.4 -13.8,-34.2 -13.8,-13.8 -34.2,-13.8 -20.4,0 -34.2,13.8 -13.8,13.8 -13.8,34.2 0,20.4 13.8,34.2 13.8,13.8 34.2,13.8 z m 336,0 q 20.4,0 34.2,-13.8 13.8,-13.8 13.8,-34.2 0,-20.4 -13.8,-34.2 -13.8,-13.8 -34.2,-13.8 -20.4,0 -34.2,13.8 -13.8,13.8 -13.8,34.2 0,20.4 13.8,34.2 13.8,13.8 34.2,13.8 z m 336,0 q 20.4,0 34.2,-13.8 13.8,-13.8 13.8,-34.2 0,-20.4 -13.8,-34.2 -13.8,-13.8 -34.2,-13.8 -20.4,0 -34.2,13.8 -13.8,13.8 -13.8,34.2 0,20.4 13.8,34.2 Q 795.6,-96 816,-96 Z M 480,-768 q 20.4,0 34.2,-13.8 13.8,-13.8 13.8,-34.2 0,-20.4 -13.8,-34.2 -13.8,-13.8 -34.2,-13.8 -20.4,0 -34.2,13.8 -13.8,13.8 -13.8,34.2 0,20.4 13.8,34.2 13.8,13.8 34.2,13.8 z"
     id="path1"
     style="stroke-width:1.2" />
</svg>
