<?xml version="1.0" encoding="UTF-8" standalone="no"?>
<svg
   height="24px"
   viewBox="0 -960 960 960"
   width="24px"
   fill="#1f1f1f"
   version="1.1"
   id="svg1"
   sodipodi:docname="icon.svg"
   inkscape:version="1.4.3 (0d15f75042, 2025-12-25)"
   xmlns:inkscape="http://www.inkscape.org/namespaces/inkscape"
   xmlns:sodipodi="http://sodipodi.sourceforge.net/DTD/sodipodi-0.dtd"
   xmlns="http://www.w3.org/2000/svg"
   xmlns:svg="http://www.w3.org/2000/svg">
  <defs
     id="defs1" />
  <sodipodi:namedview
     id="namedview1"
     pagecolor="#ffffff"
     bordercolor="#000000"
     borderopacity="0.25"
     inkscape:showpageshadow="2"
     inkscape:pageopacity="0.0"
     inkscape:pagecheckerboard="0"
     inkscape:deskcolor="#d1d1d1"
     inkscape:zoom="28.333333"
     inkscape:cx="11.947059"
     inkscape:cy="13.129412"
     inkscape:window-width="1707"
     inkscape:window-height="888"
     inkscape:window-x="0"
     inkscape:window-y="0"
     inkscape:window-maximized="1"
     inkscape:current-layer="svg1" />
  <path
     d="m 283.63636,-152.72727 v -218.18182 l 174.54546,109.09091 z m 240,-414.54546 q -54.54545,0 -92.72727,-38.18182 -38.18182,-38.18181 -38.18182,-92.72727 0,-54.54545 38.18182,-92.72728 38.18182,-38.18181 92.72727,-38.18181 h 54.54546 v 65.45455 h -54.54546 q -27.27272,0 -46.36363,19.09091 -19.09091,19.0909 -19.09091,46.36363 0,27.27272 19.09091,46.36364 19.09091,19.09091 46.36363,19.09091 h 54.54546 v 65.45454 z m 120,0 v -65.45454 h 54.54546 q 27.27273,0 46.36363,-19.09091 19.09091,-19.09092 19.09091,-46.36364 0,-27.27273 -19.09091,-46.36363 -19.0909,-19.09091 -46.36363,-19.09091 h -54.54546 v -65.45455 h 54.54546 q 54.54545,0 92.72728,38.18181 38.18181,38.18183 38.18181,92.72728 0,54.54546 -38.18181,92.72727 -38.18183,38.18182 -92.72728,38.18182 z m -120,-98.18182 v -65.45454 h 174.54546 v 65.45454 z m 135.27273,272.72728 V -480 H 872.72727 V -872.72727 H 349.09091 V -480 h -87.27273 v -392.72727 q 0,-36 25.63637,-61.63636 Q 313.09091,-960 349.09091,-960 h 523.63636 q 36,0 61.63636,25.63637 Q 960,-908.72727 960,-872.72727 V -480 q 0,36 -25.63637,61.63636 -25.63636,25.63637 -61.63636,25.63637 z M 87.272728,1.0000001e-6 Q 51.272726,1.0000001e-6 25.636362,-25.636362 -1.0000001e-6,-51.272726 -1.0000001e-6,-87.272728 V -436.36364 q 0,-36 25.6363630000001,-61.63636 25.636364,-25.63636 61.636366,-25.63636 H 610.90909 q 36,0 61.63636,25.63636 25.63637,25.63636 25.63637,61.63636 v 349.090912 q 0,36.000002 -25.63637,61.636366 Q 646.90909,1.0000001e-6 610.90909,1.0000001e-6 Z m 0,-87.2727290000001 H 610.90909 V -436.36364 H 87.272728 Z M 610.90909,-676.36364 Z m -261.81818,414.54546 z"
     id="path1"
     style="fill:#3c6090;fill-opacity:1;stroke-width:1.09091" />
  <path
     d="m 283.63636,-152.72727 v -218.18182 l 174.54546,109.09091 z"
     id="path2"
     style="fill:#ab333a;fill-opacity:1;stroke-width:1.09091"
     sodipodi:nodetypes="cccc" />
</svg>
