<?xml version="1.0" encoding="UTF-8" standalone="no"?>
<svg
   height="24px"
   viewBox="0 -960 960 960"
   width="24px"
   fill="#1f1f1f"
   version="1.1"
   id="svg1"
   sodipodi:docname="icon.svg"
   inkscape:version="1.4.3 (0d15f75042, 2025-12-25)"
   xmlns:inkscape="http://www.inkscape.org/namespaces/inkscape"
   xmlns:sodipodi="http://sodipodi.sourceforge.net/DTD/sodipodi-0.dtd"
   xmlns="http://www.w3.org/2000/svg"
   xmlns:svg="http://www.w3.org/2000/svg">
  <defs
     id="defs1" />
  <sodipodi:namedview
     id="namedview1"
     pagecolor="#ffffff"
     bordercolor="#000000"
     borderopacity="0.25"
     inkscape:showpageshadow="2"
     inkscape:pageopacity="0.0"
     inkscape:pagecheckerboard="0"
     inkscape:deskcolor="#d1d1d1"
     inkscape:zoom="28.333333"
     inkscape:cx="11.964706"
     inkscape:cy="12"
     inkscape:window-width="1707"
     inkscape:window-height="888"
     inkscape:window-x="0"
     inkscape:window-y="0"
     inkscape:window-maximized="1"
     inkscape:current-layer="svg1" />
  <path
     d="M 480,-576 Z"
     id="path5"
     style="stroke-width:1.2" />
  <path
     d="M 144,-48 Q 123.6,-48 109.8,-61.8 96,-75.6 96,-96 96,-116.4 109.8,-130.2 123.6,-144 144,-144 H 250.8 L 276,-244.8 Q 157.2,-265.2 78.6,-358.2 0,-451.2 0,-576 0,-716.4 97.8,-814.2 195.6,-912 336,-912 h 288 q 140.4,0 238.2,97.8 97.8,97.8 97.8,238.2 0,124.8 -78.6,217.8 -78.6,93 -197.4,113.4 L 709.2,-144 H 816 q 20.4,0 34.2,13.8 13.8,13.8 13.8,34.2 0,20.4 -13.8,34.2 Q 836.4,-48 816,-48 Z m 205.2,-96 h 261.6 l -24,-96 H 373.2 Z M 336,-336 h 288 q 99.6,0 169.8,-70.2 Q 864,-476.4 864,-576 864,-675.6 793.8,-745.8 723.6,-816 624,-816 H 336 q -99.6,0 -169.8,70.2 Q 96,-675.6 96,-576 q 0,99.6 70.2,169.8 70.2,70.2 169.8,70.2 z"
     id="path4"
     style="fill:#4d4d4d;stroke-width:1.2" />
  <path
     d="M 349.2,-144 H 610.8 Z"
     id="path3"
     style="stroke-width:1.2" />
  <path
     d="M 615.6,-440.4 Q 672,-496.8 672,-576 672,-655.2 615.6,-711.6 559.2,-768 480,-768 q -79.2,0 -135.6,56.4 -56.4,56.4 -56.4,135.6 0,79.2 56.4,135.6 56.4,56.4 135.6,56.4 79.2,0 135.6,-56.4 z M 412.2,-508.2 Q 384,-536.4 384,-576 q 0,-39.6 28.2,-67.8 28.2,-28.2 67.8,-28.2 39.6,0 67.8,28.2 28.2,28.2 28.2,67.8 0,39.6 -28.2,67.8 -28.2,28.2 -67.8,28.2 -39.6,0 -67.8,-28.2 z"
     id="path2"
     style="fill:#4d4d4d;stroke-width:1.2" />
  <path
     d="m 216,-624 q 20.4,0 34.2,-13.8 13.8,-13.8 13.8,-34.2 0,-20.4 -13.8,-34.2 -13.8,-13.8 -34.2,-13.8 -20.4,0 -34.2,13.8 -13.8,13.8 -13.8,34.2 0,20.4 13.8,34.2 13.8,13.8 34.2,13.8 z"
     id="path1"
     style="fill:#0055d4;stroke-width:1.2" />
</svg>
