<?xml version="1.0" encoding="UTF-8" standalone="no"?>
<svg
   height="24px"
   viewBox="0 -960 960 960"
   width="24px"
   fill="#1f1f1f"
   version="1.1"
   id="svg1"
   sodipodi:docname="icon.svg"
   inkscape:version="1.4.3 (0d15f75042, 2025-12-25)"
   xmlns:inkscape="http://www.inkscape.org/namespaces/inkscape"
   xmlns:sodipodi="http://sodipodi.sourceforge.net/DTD/sodipodi-0.dtd"
   xmlns="http://www.w3.org/2000/svg"
   xmlns:svg="http://www.w3.org/2000/svg">
  <defs
     id="defs1" />
  <sodipodi:namedview
     id="namedview1"
     pagecolor="#ffffff"
     bordercolor="#000000"
     borderopacity="0.25"
     inkscape:showpageshadow="2"
     inkscape:pageopacity="0.0"
     inkscape:pagecheckerboard="0"
     inkscape:deskcolor="#d1d1d1"
     inkscape:zoom="14.166667"
     inkscape:cx="2.6117647"
     inkscape:cy="9.1058825"
     inkscape:window-width="1707"
     inkscape:window-height="888"
     inkscape:window-x="0"
     inkscape:window-y="0"
     inkscape:window-maximized="1"
     inkscape:current-layer="svg1" />
  <path
     d="M 480,-365.71428 Z"
     id="path4"
     style="stroke-width:1.14286" />
  <path
     d="M 160,0 Q 122.28571,0 95.428567,-26.857147 68.571423,-53.714291 68.571423,-91.428571 V -640 q 0,-37.71429 26.857144,-64.57144 Q 122.28571,-731.42857 160,-731.42857 h 45.71428 v -137.14286 q 0,-37.71428 26.85715,-64.57143 Q 259.42858,-960 297.14286,-960 h 365.71428 q 37.71428,0 64.57143,26.85714 26.85715,26.85715 26.85715,64.57143 v 137.14286 H 800 q 37.71429,0 64.57143,26.85713 26.85714,26.85715 26.85714,64.57144 v 548.571429 q 0,37.71428 -26.85714,64.571424 Q 837.71429,0 800,0 Z M 297.14286,-731.42857 H 662.85714 V -868.57143 H 297.14286 Z M 160,-91.428571 H 800 V -640 H 160 Z"
     id="path3"
     style="fill:#550022;stroke-width:1.14286" />
  <path
     d="m 480,-137.14285 q 94.85714,0 161.71428,-66.85715 66.85715,-66.85715 66.85715,-161.71428 0,-94.85715 -66.85715,-161.71429 Q 574.85714,-594.28572 480,-594.28572 q -94.85714,0 -161.71428,66.85715 -66.85715,66.85714 -66.85715,161.71429 0,94.85713 66.85715,161.71428 66.85714,66.85715 161.71428,66.85715 z m 0,-68.57143 q -66.28572,0 -113.14285,-46.85715 Q 320,-299.42857 320,-365.71428 320,-432 366.85715,-478.85714 413.71428,-525.71429 480,-525.71429 q 66.28572,0 113.14285,46.85715 Q 640,-432 640,-365.71428 q 0,66.28571 -46.85715,113.14285 Q 546.28572,-205.71428 480,-205.71428 Z"
     id="path2"
     style="fill:#445500;stroke-width:1.14286" />
  <path
     d="m 502.85715,-374.85714 v -82.28571 q 0,-9.14287 -6.85716,-16.00001 Q 489.14286,-480 480,-480 q -9.14286,0 -15.99999,6.85714 -6.85716,6.85714 -6.85716,16.00001 V -376 q 0,9.14285 3.42857,17.71429 3.42859,8.57142 10.28572,15.42857 l 45.71429,45.71428 q 6.85714,6.85715 15.99999,6.85715 9.14287,0 16.00001,-6.85715 6.85714,-6.85713 6.85714,-16 0,-9.14286 -6.85714,-15.99999 z"
     id="path1"
     style="fill:#445500;fill-opacity:1;stroke-width:1.14286" />
</svg>
