<?xml version="1.0" encoding="UTF-8" standalone="no"?>
<svg
   height="24px"
   viewBox="0 -960 960 960"
   width="24px"
   fill="#1f1f1f"
   version="1.1"
   id="svg1"
   sodipodi:docname="icon.svg"
   inkscape:version="1.4.3 (0d15f75042, 2025-12-25)"
   xmlns:inkscape="http://www.inkscape.org/namespaces/inkscape"
   xmlns:sodipodi="http://sodipodi.sourceforge.net/DTD/sodipodi-0.dtd"
   xmlns="http://www.w3.org/2000/svg"
   xmlns:svg="http://www.w3.org/2000/svg">
  <defs
     id="defs1" />
  <sodipodi:namedview
     id="namedview1"
     pagecolor="#ffffff"
     bordercolor="#000000"
     borderopacity="0.25"
     inkscape:showpageshadow="2"
     inkscape:pageopacity="0.0"
     inkscape:pagecheckerboard="0"
     inkscape:deskcolor="#d1d1d1"
     inkscape:zoom="28.333333"
     inkscape:cx="12.035294"
     inkscape:cy="11.964706"
     inkscape:window-width="1707"
     inkscape:window-height="888"
     inkscape:window-x="0"
     inkscape:window-y="0"
     inkscape:window-maximized="1"
     inkscape:current-layer="g3" />
  <g
     id="g3"
     transform="matrix(1.1131783,0,0,1.1131783,-55.657088,40.435404)">
    <path
       d="m 135.82725,-427.2661 v 289.6725 -600.80223 300.40112 -12.87434 z"
       id="path3"
       style="fill:#555a92;fill-opacity:1;stroke-width:1.07286" />
    <path
       d="m 539.87054,-745.95319 137.32623,-137.32622 60.08023,60.08022 -137.32624,137.32622 c 8.58289,15.02006 15.73531,31.11298 21.45722,48.27875 5.72193,17.16578 8.58289,35.40442 8.58289,54.71592 0,53.64306 -18.77506,99.23966 -56.3252,136.7898 -37.55014,37.55013 -83.14673,56.3252 -136.7898,56.3252 -53.64306,0 -99.23966,-18.77507 -136.78979,-56.3252 -37.55013,-37.55014 -56.3252,-83.14674 -56.3252,-136.7898 0,-53.64305 18.77507,-99.23965 56.3252,-136.78979 37.55015,-37.55014 83.14673,-56.32521 136.78979,-56.32521 19.3115,0 37.55015,2.86097 54.71592,8.58289 17.16579,5.72192 33.25869,12.87433 48.27875,21.45722 z m -26.82153,86.90175 c -20.74198,-20.74198 -46.13303,-31.11297 -76.17314,-31.11297 -30.04011,0 -55.43115,10.37099 -76.17313,31.11297 -20.74199,20.74198 -31.11298,46.13303 -31.11298,76.17314 0,30.04011 10.37099,55.43116 31.11298,76.17314 20.74198,20.74198 46.13302,31.11297 76.17313,31.11297 30.04011,0 55.43116,-10.37099 76.17314,-31.11297 20.74198,-20.74198 31.11298,-46.13303 31.11298,-76.17314 0,-30.04011 -10.371,-55.43116 -31.11298,-76.17314 z"
       id="path2"
       style="fill:#555a92;fill-opacity:1;stroke-width:1.07286" />
    <path
       d="m 736.62948,-169.77943 85.82889,-85.82889 v 118.01472 c 0,23.60295 -8.40407,43.808496 -25.21224,60.616658 -16.80816,16.808158 -37.0137,25.212236 -60.61665,25.212236 H 135.82725 c -23.60295,0 -43.808493,-8.404078 -60.616654,-25.212236 C 58.402438,-93.785104 49.998359,-113.99065 49.998359,-137.5936 v -600.80223 c 0,-23.60294 8.404079,-43.80849 25.212237,-60.61665 16.808161,-16.80816 37.013704,-25.21224 60.616654,-25.21224 h 216.33929 c -71.26486,23.42093 -92.72006,46.22313 -119.09136,85.82889 h -97.24793 v 600.80223 h 600.80223 z"
       id="path1"
       sodipodi:nodetypes="ccssssssssscccccc"
       style="fill:#555a92;fill-opacity:1;stroke-width:1.07286" />
    <path
       d="m 525.74115,-182.66522 v -131.96191 l 237.1023,-236.02945 q 9.65575,-9.65575 21.45723,-13.9472 11.80147,-4.29144 23.60294,-4.29144 12.87434,0 24.67581,4.82787 11.80147,4.82788 21.45722,14.48363 l 39.69586,39.69586 q 8.58289,9.65575 13.41077,21.45722 4.82787,11.80148 4.82787,23.60295 0,11.80147 -4.29144,24.13937 -4.29145,12.33791 -13.9472,21.99366 l -236.02945,236.02944 z m 321.85833,-282.16247 -39.69586,-39.69586 z m -257.48667,217.79081 h 40.76873 l 129.81619,-130.88906 -19.3115,-20.38436 -20.38436,-19.3115 -130.88906,129.81619 z m 151.27342,-151.27342 -20.38436,-19.3115 39.69586,39.69586 z"
       id="path1-5"
       style="fill:#555a92;fill-opacity:1;stroke-width:1.07286" />
  </g>
</svg>
