<?xml version="1.0" encoding="UTF-8" standalone="no"?>
<svg
   height="24px"
   viewBox="0 -960 960 960"
   width="24px"
   fill="#1f1f1f"
   version="1.1"
   id="svg1"
   sodipodi:docname="icon.svg"
   inkscape:version="1.4.2 (f4327f4, 2025-05-13)"
   xmlns:inkscape="http://www.inkscape.org/namespaces/inkscape"
   xmlns:sodipodi="http://sodipodi.sourceforge.net/DTD/sodipodi-0.dtd"
   xmlns="http://www.w3.org/2000/svg"
   xmlns:svg="http://www.w3.org/2000/svg">
  <defs
     id="defs1" />
  <sodipodi:namedview
     id="namedview1"
     pagecolor="#ffffff"
     bordercolor="#000000"
     borderopacity="0.25"
     inkscape:showpageshadow="2"
     inkscape:pageopacity="0.0"
     inkscape:pagecheckerboard="0"
     inkscape:deskcolor="#d1d1d1"
     inkscape:zoom="10.9375"
     inkscape:cx="-24.64"
     inkscape:cy="12.891429"
     inkscape:window-width="2560"
     inkscape:window-height="1334"
     inkscape:window-x="-11"
     inkscape:window-y="-11"
     inkscape:window-maximized="1"
     inkscape:current-layer="svg1" />
  <path
     style="fill:#d5f6ff;stroke-width:24.2138;stroke-linecap:square;paint-order:markers fill stroke"
     d="M 480,-772.67203 115.56396,-143.11421 H 844.43601 Z"
     id="path5" />
  <path
     d="M 480,-336.82431 Z"
     id="path2"
     style="stroke-width:1.21069" />
  <path
     d="m 480,-893.74084 c -12.10688,0 -23.79128,3.02672 -35.09104,9.08016 -11.29976,6.05344 -20.63845,15.1336 -27.90258,27.24048 L 10.290846,-155.22109 c -13.7211311,24.21376 -13.7211311,48.42752 0,72.641286 13.721128,24.213762 34.64964,36.320644 62.899025,36.320644 H 886.81012 c 28.24939,0 49.17791,-12.106882 62.89903,-36.320644 13.72113,-24.213766 13.72113,-48.427526 0,-72.641286 L 542.99362,-857.4202 c -7.26413,-12.10688 -16.60282,-21.18704 -27.90259,-27.24048 -11.29975,-6.05344 -22.98415,-9.08016 -35.09103,-9.08016 z m 0,121.06881 364.43603,629.55782 H 115.56396 Z"
     style="stroke-width:1.21069"
     id="path3" />
  <path
     d="m 568.72119,-445.27983 c -6.57196,0 -11.8449,3.2692 -15.78808,9.69464 L 450.42624,-268.14101 377.4931,-387.39439 c -3.94317,-6.42547 -9.21611,-9.69464 -15.78806,-9.69464 -6.57194,0 -11.84488,3.26919 -15.78806,9.69464 l -78.86329,128.8539 c -5.25755,8.03179 -5.86853,16.48399 -1.92537,25.31898 3.94316,8.83497 9.82711,13.27128 17.71343,13.27128 H 677.1582 c 7.88632,0 13.77033,-4.43631 17.71349,-13.27128 3.94316,-8.835 3.33217,-17.28719 -1.92545,-25.31898 l -108.437,-177.0447 c -3.94317,-6.42544 -9.21611,-9.69464 -15.78805,-9.69464 z"
     id="path6"
     style="fill:#666666;stroke-width:1.08979" />
  <path
     d="m 480,-617.21004 c -1.97478,0 -3.88063,0.4937 -5.72376,1.48109 -1.84311,0.98738 -3.36635,2.46846 -4.55123,4.44323 l -66.33997,114.53673 c -2.23806,3.94954 -2.23806,7.89908 0,11.84863 2.23808,3.94954 5.65177,5.92432 10.25957,5.92432 h 132.71078 c 4.60781,0 8.02149,-1.97478 10.25957,-5.92432 2.23807,-3.94955 2.23807,-7.89909 0,-11.84863 l -66.33998,-114.53673 c -1.18487,-1.97477 -2.70811,-3.45585 -4.55123,-4.44323 -1.84312,-0.98739 -3.74898,-1.48109 -5.72375,-1.48109 z m 59.4437,122.43583 c -154.23271,-150.08262 -154.23271,-150.08262 0,0 z"
     id="path7"
     sodipodi:nodetypes="ssccssssccssaa"
     style="fill:#d4aa00;stroke-width:0.197477" />
</svg>
