<?xml version="1.0" encoding="UTF-8" standalone="no"?>
<svg
   height="24px"
   viewBox="0 -960 960 960"
   width="24px"
   fill="#1f1f1f"
   version="1.1"
   id="svg1"
   sodipodi:docname="icon.svg"
   xml:space="preserve"
   inkscape:version="1.4.3 (0d15f75042, 2025-12-25)"
   xmlns:inkscape="http://www.inkscape.org/namespaces/inkscape"
   xmlns:sodipodi="http://sodipodi.sourceforge.net/DTD/sodipodi-0.dtd"
   xmlns="http://www.w3.org/2000/svg"
   xmlns:svg="http://www.w3.org/2000/svg"><defs
     id="defs1" /><sodipodi:namedview
     id="namedview1"
     pagecolor="#ffffff"
     bordercolor="#000000"
     borderopacity="0.25"
     inkscape:showpageshadow="2"
     inkscape:pageopacity="0.0"
     inkscape:pagecheckerboard="0"
     inkscape:deskcolor="#d1d1d1"
     inkscape:zoom="28.333333"
     inkscape:cx="12"
     inkscape:cy="12"
     inkscape:window-width="1707"
     inkscape:window-height="888"
     inkscape:window-x="0"
     inkscape:window-y="0"
     inkscape:window-maximized="1"
     inkscape:current-layer="svg1" /><path
     style="fill:#ffd42a;stroke-width:98.3905;stroke-linecap:round;stroke-linejoin:round"
     d="m 500.39354,-636.5674 c -94.41995,-0.54945 -189.2408,17.45543 -276.61579,53.32106 -75.03574,31.78886 -148.055467,85.02499 -177.360471,163.89318 -3.713238,14.6934 -10.430602,89.98639 8.242776,96.76885 21.237936,2.73676 17.919333,-75.7815 26.659013,-89.228 28.955582,-60.80827 88.551682,-97.91595 147.863132,-124.60338 99.83613,-42.98631 208.91356,-56.06588 316.81459,-53.23603 98.02604,4.34089 200.42575,23.37278 281.58036,81.60404 40.27486,28.68905 64.39561,122.20473 68.82991,172.27628 2.53265,20.57394 43.22042,-18.89027 40.10818,-39.15725 -0.77901,-56.19861 -31.113,-124.06043 -73.80279,-159.72107 -75.29922,-64.7413 -175.65714,-89.06517 -272.11139,-99.87436 -30.01916,-2.01528 -60.13238,-2.18077 -90.20752,-2.04332 z"
     id="path21"
     sodipodi:nodetypes="ccccccccccccc" /><path
     style="fill:#ffd42a;fill-opacity:1;stroke-width:98.3905;stroke-linecap:round;stroke-linejoin:round"
     d="m 844.98426,-463.51308 c -15.90573,6.2163 -25.82493,22.33981 -41.19719,30.1535 -81.00335,54.51049 -177.97376,78.75101 -273.27896,89.57023 -108.11188,10.42743 -223.57228,4.01731 -324.47048,-42.74013 -30.06286,-13.24453 -55.17974,-35.02282 -79.33691,-56.37966 -15.42033,-4.26483 -21.89858,17.06067 -28.711367,27.68976 -22.166782,39.58498 -21.775417,89.89217 1.747253,128.74984 40.279404,68.05824 117.114584,103.13221 190.611204,123.06983 63.89317,16.93416 130.43472,24.09819 196.42896,19.06613 100.33252,-3.21784 201.84753,-27.87476 287.81033,-80.84615 33.20205,-22.96956 64.30623,-51.2716 85.0493,-86.21422 24.69684,-40.78238 27.19091,-93.73106 3.6016,-135.5848 -4.01581,-6.89853 -8.44987,-17.65134 -18.25354,-16.53433 z"
     id="path1"
     sodipodi:nodetypes="scccccccccccss" /><path
     style="fill:#504416;stroke-width:1.24761"
     d="m 44.063417,-299.13873 c -3.566294,-5.89852 -10.263242,-18.63364 -13.948233,-26.52437 -7.715934,-16.52229 -16.645543,-43.24155 -21.0540734,-62.99824 -3.5554125,-15.9335 -7.4250668,-41.21816 -7.7221765,-50.45743 -0.064639,-2.00991 -0.1993531,-3.7739 -0.2993778,-3.91999 -0.10002091,-0.14607 -0.17875885,-1.65845 -0.17496861,-3.36083 0.003743,-1.70239 -0.0783499,-3.21974 -0.18252414,-3.37188 -0.34127133,-0.4984 -0.83681217,-22.02869 -0.63544412,-27.6088 0.79686244,-22.08191 1.25710467,-27.80855 3.79098627,-47.16996 2.4640778,-18.8281 7.5822493,-42.28042 13.3282313,-61.07224 4.128467,-13.50182 11.285608,-31.92994 17.699885,-45.57338 10.103722,-21.49108 27.592911,-47.62996 43.961708,-65.70404 20.452588,-22.58328 37.5077,-37.61127 62.33061,-54.92219 18.42754,-12.85092 43.00911,-26.90808 62.64849,-35.82604 3.41974,-1.55285 8.27987,-3.77105 10.80029,-4.92934 6.59094,-3.02895 21.62065,-9.11309 30.52249,-12.35573 26.70325,-9.72709 60.82365,-19.36734 89.83233,-25.38089 37.12572,-7.69624 82.5236,-13.22624 118.24117,-14.40323 8.12932,-0.26787 36.43941,-0.54792 41.88876,-0.41437 3.56834,0.0875 7.77034,0.16869 9.33776,0.18052 5.46726,0.0413 38.81443,1.87351 44.92588,2.4684 2.08833,0.20328 9.25225,0.88372 15.91979,1.51209 19.61402,1.84847 34.09547,3.96212 57.88307,8.44835 31.01234,5.8488 56.4058,12.3092 85.82709,21.83546 20.28514,6.56809 40.70554,14.81323 65.34827,26.38571 36.39558,17.09172 72.96269,42.17609 99.8511,68.49601 11.74886,11.50046 21.33159,22.55383 30.99939,35.7568 18.73828,25.59019 33.07309,55.7608 42.10022,88.6088 2.17838,7.9267 2.48908,9.26375 4.87569,20.98107 4.7596,23.36796 7.71885,50.79348 7.8338,72.60179 0.11004,20.87591 -1.21284,43.39826 -3.47006,59.0786 -1.75413,12.1855 -6.48378,36.01045 -9.07383,45.70823 -6.50315,24.34927 -14.23948,44.3238 -25.2201,65.11605 -9.55825,18.09896 -21.99826,36.76273 -33.68856,50.54302 -12.47363,14.7037 -29.45251,31.48203 -44.23543,43.71294 -13.03985,10.78876 -40.93075,29.93589 -55.68706,38.22922 -11.95073,6.71654 -20.82609,11.40674 -27.84426,14.71437 -1.17888,0.5556 -2.62073,1.2447 -3.20411,1.53134 -9.00984,4.42692 -18.95846,8.94853 -31.08187,14.12656 -5.97484,2.55191 -27.50546,10.64023 -37.49019,14.08378 -9.93265,3.42559 -33.29047,10.58845 -38.6614,11.85581 -2.01362,0.47515 -9.65243,2.36174 -16.97513,4.19242 -7.32272,1.83069 -14.44542,3.53941 -15.82826,3.79714 -1.38283,0.25774 -5.86605,1.16319 -9.96272,2.01212 -4.09665,0.84892 -9.01504,1.81757 -10.92974,2.15254 -1.91469,0.33496 -6.40529,1.13813 -9.97911,1.78482 -10.90052,1.97246 -38.98512,5.52206 -55.90204,7.06543 -25.25764,2.30431 -39.88399,3.17241 -54.64332,3.24317 -6.1283,0.0294 -13.05008,0.0621 -15.38174,0.0729 -2.33166,0.0112 -5.38215,-0.0192 -6.77889,-0.0664 -1.39672,-0.0472 -5.14722,-0.16775 -8.33441,-0.26789 -19.8207,-0.62268 -48.0368,-2.66538 -62.21668,-4.50416 -26.79067,-3.47406 -59.02722,-9.40169 -80.40146,-14.78414 -2.08118,-0.52409 -3.96687,-0.98711 -4.19044,-1.02894 -5.57443,-1.04312 -27.67153,-7.32274 -42.79348,-12.1612 -19.54745,-6.25443 -49.38497,-17.87988 -62.67337,-24.4191 -3.97501,-1.9561 -8.7542,-4.26524 -10.62041,-5.13144 -5.69724,-2.64432 -16.39888,-8.44457 -24.5555,-13.309 -15.23874,-9.08803 -18.81665,-11.3629 -26.56816,-16.89234 -4.3219,-3.08296 -9.35172,-6.65577 -11.17736,-7.93958 -6.8447,-4.81323 -23.955213,-19.44163 -32.435134,-27.72998 -11.890487,-11.62185 -24.27549,-26.61714 -34.41684,-41.67059 -4.313263,-6.40243 -8.59238,-12.88141 -9.509149,-14.39772 z m 10.923265,-34.47239 c 0.02944,-0.18257 -0.26987,-3.45952 -0.665113,-7.2821 -2.094064,-20.25269 0.278441,-38.8244 7.801719,-61.0711 5.389739,-15.93772 15.485726,-34.52179 26.495825,-48.77191 11.810537,-15.2861 20.389117,-24.44006 35.834907,-38.23839 l 7.4761,-6.6787 19.27997,-13.24773 c 20.81983,-14.30584 24.99204,-16.88671 42.81848,-26.48691 15.18568,-8.17806 43.85865,-20.61262 62.30077,-27.01789 21.02887,-7.30367 45.26701,-14.5383 62.67544,-18.70741 6.53072,-1.56405 13.1127,-3.14599 14.62661,-3.51546 3.28929,-0.80271 14.55106,-3.08652 28.29714,-5.73847 28.05263,-5.412 68.70147,-10.39551 100.04487,-12.26543 17.90359,-1.06811 18.84478,-1.12059 22.52949,-1.25638 5.78755,-0.21329 31.85806,-0.58215 37.65899,-0.53282 12.00819,0.10206 37.23711,0.89885 43.41926,1.3712 1.81771,0.13887 6.83945,0.52347 11.15945,0.85466 32.39321,2.4834 63.2577,6.9272 92.90521,13.37628 25.67379,5.58469 38.66148,9.09051 58.90272,15.89985 18.22283,6.13033 27.50803,9.66187 42.96067,16.33971 0.67822,0.29309 3.94919,1.86258 7.26884,3.48778 3.31965,1.62519 8.37777,4.09298 11.24027,5.48398 12.07174,5.8661 36.76542,21.4141 48.75045,30.69499 7.83803,6.06956 18.69736,15.62183 25.14568,22.11905 18.10922,18.24658 34.35648,42.70929 42.08817,63.37013 9.76819,26.10281 12.02508,53.05417 6.59848,78.79757 -1.67857,7.96299 -1.12961,7.30443 1.65329,-1.98334 2.0076,-6.7003 5.44965,-26.77338 5.772,-33.66081 0.65828,-14.06482 -0.55546,-27.45687 -3.75409,-41.42166 -2.71533,-11.8547 -9.66887,-29.08108 -17.02021,-42.16512 -7.94957,-14.14877 -21.41395,-30.91922 -36.82128,-45.86244 -24.97193,-24.21972 -60.7283,-46.52451 -101.13908,-63.09048 -14.59903,-5.98472 -30.06735,-11.58991 -41.62897,-15.08492 -4.93688,-1.49239 -9.17071,-2.73968 -9.40852,-2.77175 -0.23782,-0.0321 -3.7303,-0.98961 -7.76111,-2.12785 -28.42437,-8.02665 -71.21764,-15.9384 -103.84054,-19.19834 -46.03016,-4.5997 -86.85732,-5.48975 -131.75081,-2.87222 -6.56011,0.38249 -12.98289,0.78439 -14.27283,0.89313 -1.28996,0.1088 -4.31077,0.35511 -6.71292,0.54751 -2.40215,0.19239 -6.30521,0.54771 -8.67347,0.7896 -2.36827,0.24188 -8.78897,0.87975 -14.26821,1.41747 -5.47925,0.53771 -16.91231,2.00694 -25.40681,3.26494 -8.49451,1.25801 -17.05829,2.49248 -19.03063,2.74326 -1.97234,0.25078 -5.39592,0.84056 -7.60795,1.31061 -2.21203,0.47006 -5.45006,1.0979 -7.19562,1.39522 -7.06716,1.20372 -9.6653,1.71388 -13.43272,2.63759 -2.16964,0.53195 -4.27857,0.94556 -4.6865,0.91913 -0.40793,-0.0264 -1.80126,0.26773 -3.09629,0.65369 -1.29502,0.38598 -4.06291,1.00173 -6.15085,1.36834 -10.78758,1.89416 -29.84332,6.97848 -56.63308,15.11044 -14.18813,4.30676 -36.86736,12.68501 -50.62884,18.7035 -4.79987,2.09919 -9.95784,4.34824 -11.46215,4.99789 -4.47814,1.93393 -20.7404,10.05337 -28.52283,14.24092 -12.7622,6.86706 -27.76739,16.29611 -40.88313,25.69042 -13.65179,9.77824 -19.89274,14.78544 -28.59138,22.9392 -24.614681,23.07283 -40.507253,43.9207 -52.460981,68.81828 -7.323698,15.25402 -10.742537,25.46412 -13.575997,40.54366 -3.474807,18.49278 -3.604321,33.41084 -0.454654,52.36951 1.072071,6.45306 1.658536,8.981 1.832764,7.90012 z m 73.000608,73.4004 c 18.51935,20.36988 38.17051,35.28098 68.16775,51.725 20.05464,10.99364 38.65481,18.95749 65.3861,27.9957 8.44648,2.85588 24.78668,7.87255 26.08556,8.00863 0.24689,0.0258 2.41551,0.61409 4.81918,1.30718 17.8595,5.14972 52.24653,11.77805 77.21053,14.88285 53.87542,6.70053 110.06491,6.92197 165.5579,0.65247 10.99798,-1.24253 38.56257,-5.16961 43.59031,-6.21023 2.04864,-0.42403 6.69919,-1.31037 10.33455,-1.96967 3.63536,-0.65928 8.25746,-1.59483 10.27132,-2.07898 2.01386,-0.48415 7.12652,-1.64251 11.36145,-2.57415 29.44059,-6.4766 69.08498,-18.91308 93.93596,-29.4678 11.64988,-4.94795 31.91831,-14.60579 40.61545,-19.35314 16.13932,-8.80969 39.07794,-23.86701 49.33351,-32.38343 12.22513,-10.15198 29.46619,-26.63553 36.45799,-34.85618 8.63908,-10.15743 17.00067,-22.31939 23.16335,-33.69108 17.7835,-32.81511 21.87949,-65.81391 12.32562,-99.29988 -2.86868,-10.05462 -5.42361,-16.36729 -10.23287,-25.28322 -3.7826,-7.01259 -8.99495,-15.14699 -9.48906,-14.80864 -0.14389,0.0986 -1.60946,1.56814 -3.25683,3.2658 -17.25898,17.78589 -51.80692,41.58176 -81.73609,56.29804 -5.95894,2.93002 -19.72569,9.36677 -22.54946,10.54317 -1.36487,0.56861 -5.18019,2.21658 -8.47847,3.66215 -12.73305,5.58063 -34.51136,13.52443 -48.77333,17.79042 -4.20627,1.25816 -10.15969,3.04423 -13.22981,3.96905 -9.51031,2.86477 -27.79969,7.82336 -36.167,9.80554 -8.30458,1.96732 -23.32015,5.28657 -28.93323,6.39581 -7.59257,1.50042 -18.39488,3.57172 -21.95201,4.20924 -7.08395,1.26958 -42.31189,6.0947 -48.14402,6.59421 -3.43694,0.29437 -6.32777,0.58916 -6.42407,0.65509 -0.0963,0.0659 -1.93414,0.25424 -4.08411,0.41844 -4.47362,0.34167 -10.96741,0.96513 -13.83562,1.32834 -1.07617,0.13628 -5.80513,0.44998 -10.50877,0.6971 -4.70365,0.24714 -12.80195,0.67134 -17.99621,0.94267 -24.98784,1.30528 -60.21826,0.95031 -86.12449,-0.86776 -5.16997,-0.36282 -22.22624,-1.9316 -24.28676,-2.23381 -1.11843,-0.16403 -7.01793,-0.87209 -13.11002,-1.57345 -12.31429,-1.41769 -52.10026,-8.58318 -65.15413,-11.73432 -21.83381,-5.27057 -36.62993,-9.68851 -54.78054,-16.35682 -21.386,-7.85694 -34.61374,-13.75454 -50.1529,-22.36068 -24.49103,-13.56404 -43.5045,-28.20267 -63.22088,-48.67436 -0.95377,-0.9903 -1.80946,-1.41892 -2.24178,-1.12289 -1.78387,1.22149 -11.29917,14.53203 -14.78873,20.6873 -4.10966,7.24912 -8.520887,17.0811 -10.908489,24.3135 -5.602494,16.97079 -7.420811,36.81278 -4.985102,54.39888 2.442547,17.63542 6.393267,29.01043 17.183021,49.47377 2.10118,3.98501 15.44352,22.14858 19.74523,26.88014 z m 13.02677,-185.40651 c 29.79439,31.62294 79.53044,58.38766 138.51737,74.54111 23.69834,6.48973 45.98023,10.91724 73.1027,14.5258 42.77482,5.69108 79.71311,7.51327 121.03743,5.97089 40.52428,-1.51253 94.96483,-8.18551 133.72227,-16.39083 20.34787,-4.30785 30.87588,-6.90122 52.76408,-12.99743 16.75894,-4.66762 26.06151,-7.669 41.60187,-13.4224 29.43481,-10.89745 53.9312,-22.29051 75.98038,-35.33778 6.96515,-4.12152 33.33328,-22.42698 38.19262,-26.51435 3.30397,-2.77909 18.46945,-17.23675 18.76179,-17.88612 0.97937,-2.17552 -17.40634,-19.87257 -32.59081,-31.3701 -10.5637,-7.9987 -23.84736,-16.68258 -32.88188,-21.49575 -18.2925,-9.74536 -27.51336,-14.28268 -35.23388,-17.33757 -1.98446,-0.78522 -4.92389,-2.0038 -6.53208,-2.70796 -7.40828,-3.24379 -25.10716,-9.4669 -38.17118,-13.4214 -25.10761,-7.60011 -51.34451,-13.17624 -83.36443,-17.71747 -3.23819,-0.45926 -7.47585,-1.05837 -9.41701,-1.33137 -17.72632,-2.49293 -53.23545,-5.08644 -70.50598,-5.14959 -12.14127,-0.0444 -21.58443,-0.009 -28.98602,0.10804 -4.24211,0.0673 -8.67291,0.11765 -9.84622,0.11204 -3.6756,-0.0175 -27.79186,1.54575 -37.59746,2.43716 -15.3896,1.39902 -33.11692,3.42311 -41.15247,4.69876 -4.57091,0.72563 -11.9166,1.87582 -16.32374,2.55595 -4.40716,0.68015 -12.59916,2.17204 -18.20445,3.31533 -5.60529,1.14329 -11.07465,2.23888 -12.15413,2.43463 -1.07948,0.19577 -3.57979,0.78912 -5.55625,1.31854 -1.97645,0.52944 -4.16685,1.05695 -4.86757,1.17224 -1.28409,0.2113 -6.87691,1.52639 -18.61984,4.37828 -8.45915,2.05439 -26.37151,7.47128 -38.46093,11.631 -5.36345,1.84545 -12.86322,4.40089 -16.66617,5.67877 -9.75471,3.27782 -25.96162,10.11082 -43.99996,18.55084 -32.58269,15.24524 -69.13475,39.85817 -88.77457,59.7778 -3.0349,3.07815 -4.69376,4.91432 -9.17257,10.15303 -1.7815,2.08376 -1.7614,2.11993 5.39909,9.71987 z"
     id="path20" /><path
     style="fill:#504416;fill-opacity:1;stroke-width:1.24761"
     d="m 755.54369,-305.27286 c -0.18691,-4.37569 1.05938,-11.65354 3.83827,-22.41384 l 1.70449,-6.60009 -5.4175,3.65699 c -4.06625,2.74485 -5.5281,3.50177 -5.86095,3.03462 -0.2439,-0.3423 -0.10393,-1.20959 0.31099,-1.92729 1.26011,-2.17959 7.28273,-7.69762 9.93528,-9.10291 2.9339,-1.55431 3.13439,-1.89902 5.80243,-9.97675 2.13244,-6.45618 5.88803,-13.54917 9.63959,-18.20579 2.95494,-3.66782 4.07852,-4.07084 2.99794,-1.07534 -2.50263,6.93765 -6.65256,20.82113 -6.35043,21.24519 0.50976,0.71545 14.76941,-10.45224 17.9749,-14.07734 1.42163,-1.60772 3.07899,-3.47667 3.68304,-4.15322 2.0127,-2.25426 1.94273,-0.25449 -0.11764,3.36229 -4.2811,7.5152 -8.29278,11.68396 -17.70444,18.39771 l -6.50358,4.63932 -0.99732,3.4779 c -0.54852,1.91286 -1.63945,6.73531 -2.42429,10.71656 -2.07041,10.50258 -0.84355,16.57316 3.31659,16.41069 2.83026,-0.11041 7.78255,-4.4622 12.69214,-11.15279 2.18553,-2.97835 4.09817,-5.39429 4.25029,-5.36875 0.66041,0.11091 -0.62326,3.85545 -2.60152,7.58896 -3.43101,6.4752 -7.82531,11.9772 -12.57639,15.74666 -4.73827,3.75928 -7.26806,4.78961 -10.44899,4.25559 -3.2509,-0.54574 -4.92174,-3.30019 -5.14294,-8.47837 z"
     id="path19" /><path
     style="fill:#504416;fill-opacity:1;stroke-width:1.24761"
     d="m 714.53482,-281.37099 c -5.02451,-10.6915 3.5704,-28.9865 18.80495,-40.02794 2.54298,-1.84306 5.65266,-3.7337 6.91041,-4.20146 2.65982,-0.98915 5.70607,-0.97181 7.05284,0.0402 1.56966,1.17943 1.60312,4.3491 0.0754,7.13976 -1.54724,2.8263 -6.51544,7.49774 -7.10058,6.67649 -0.19262,-0.27031 -0.11652,-0.84392 0.16889,-1.27466 0.73169,-1.10395 -1.43156,-3.96562 -3.12474,-4.1336 -2.62246,-0.26017 -5.58252,1.08118 -7.84228,3.55372 -2.781,3.0429 -5.64467,8.53389 -6.52708,12.51545 l -0.71643,3.23266 10.26949,-6.45406 c 5.64822,-3.54975 12.12211,-7.70885 14.38642,-9.24245 3.15843,-2.13919 4.22752,-2.6332 4.59183,-2.12187 0.26119,0.36657 -0.16471,1.58289 -0.94645,2.70293 -1.12884,1.61738 -4.04137,3.85532 -14.15297,10.87494 -7.00241,4.86116 -12.87611,9.20263 -13.05264,9.64772 -0.41026,1.03419 1.43745,3.61778 3.27802,4.58354 3.40197,1.78506 9.93544,-0.65045 14.79123,-5.51379 1.63912,-1.64163 4.36577,-4.88712 6.05927,-7.21221 1.69349,-2.32508 3.24569,-4.19945 3.44932,-4.16527 0.83065,0.13945 -0.0926,3.19692 -2.05985,6.82135 -4.94695,9.11429 -11.18469,15.89948 -17.37167,18.89629 -4.27054,2.06852 -9.7832,3.15189 -11.87976,2.33467 -2.235,-0.87121 -4.07521,-2.56924 -5.06359,-4.67237 z"
     id="path18" /><path
     style="fill:#504416;fill-opacity:1;stroke-width:1.24761"
     d="m 672.56313,-268.05875 c -1.14143,-4.9011 -1.00747,-7.44661 0.62324,-11.84325 2.61091,-7.03938 6.47142,-12.762 12.65626,-18.76101 5.10853,-4.95502 7.64421,-6.74163 12.36487,-8.71213 5.02819,-2.09887 7.90524,-1.92816 9.68866,0.57487 1.0464,1.46859 1.17766,2.28592 0.67916,4.2286 -0.33984,1.32448 -1.07731,3.14932 -1.63877,4.05522 -1.13945,1.83843 -4.38872,4.93526 -5.05997,4.82256 -0.23895,-0.0402 -0.55268,-0.90107 -0.69721,-1.91324 -0.40117,-2.80972 -1.60955,-4.05337 -4.32312,-4.44936 l -2.45686,-0.35855 -3.92279,2.79504 -3.92276,2.79503 -2.29783,4.28139 c -1.2638,2.35477 -2.45604,5.36824 -2.64943,6.69659 l -0.35161,2.41519 1.30724,-0.57006 c 2.09029,-0.91149 13.18797,-6.98224 20.09219,-10.99097 3.49214,-2.02762 6.83338,-3.81817 7.42498,-3.97904 l 1.07565,-0.29249 -0.0163,1.33528 c -0.0125,0.97427 -0.79953,1.99104 -2.91296,3.76077 -3.053,2.55654 -18.76932,11.88098 -23.39008,13.87732 l -2.71695,1.17381 -0.0323,1.36626 c -0.0428,1.79972 2.36211,4.37409 4.90868,5.25475 1.0865,0.37573 3.46961,0.38637 5.29576,0.0236 2.7094,-0.53821 4.05921,-1.19854 7.33657,-3.58918 2.2567,-1.64612 5.01166,-4.18189 6.28823,-5.7879 3.80798,-4.79075 4.13017,-5.09661 4.42016,-4.1961 0.41751,1.29653 -2.95529,7.55724 -6.28213,11.66103 -4.13665,5.10274 -11.67902,10.63539 -16.03432,11.76182 -4.67942,1.21028 -7.99291,1.10588 -10.62442,-0.33472 -3.04571,-1.66738 -3.83692,-2.83027 -4.83157,-7.10115 z"
     id="path17" /><path
     style="fill:#504416;fill-opacity:1;stroke-width:1.24761"
     d="m 621.94961,-241.23079 c 0.13208,-0.50751 0.83221,-3.03965 1.55582,-5.62699 0.72364,-2.58735 1.54586,-6.42208 1.82718,-8.52161 0.28132,-2.09953 1.5095,-8.30543 2.72933,-13.79089 1.21983,-5.48547 2.38821,-10.74123 2.59641,-11.67946 0.20818,-0.93824 0.64833,-2.59497 0.97809,-3.68166 0.32976,-1.08667 1.12746,-3.8362 1.77266,-6.11007 0.64517,-2.27386 1.36419,-4.27047 1.59776,-4.4369 0.23359,-0.16643 0.46081,-0.79187 0.50492,-1.38987 0.044,-0.59801 0.6401,-2.19806 1.3244,-3.55568 0.68428,-1.35762 1.98128,-3.92822 2.88221,-5.71245 3.42899,-6.79089 9.76609,-14.73719 14.36734,-18.01564 3.21966,-2.29403 8.0456,-3.79432 10.74657,-3.3409 2.77482,0.46583 4.49399,2.53734 4.71955,5.68679 0.15512,2.16575 -1.66064,7.92384 -2.74154,8.694 -0.32741,0.23326 -0.65732,0.76791 -0.73315,1.18808 -0.0757,0.42018 -1.612,2.54992 -3.41372,4.73278 -2.77697,3.36437 -4.66374,4.98729 -12.38901,10.65637 l -9.11316,6.68759 -1.71789,7.09816 c -0.94483,3.90398 -1.58785,7.11997 -1.42894,7.14665 0.15891,0.0267 1.34608,-1.37386 2.63818,-3.1123 1.29209,-1.73845 4.0476,-4.72422 6.12338,-6.63505 3.1875,-2.9342 4.36515,-3.70949 7.57637,-4.98785 6.04138,-2.40497 9.00044,-1.78823 10.87824,2.26734 1.23174,2.66022 -0.1023,10.253 -2.96653,16.88472 -2.27812,5.27457 -3.2545,9.4705 -2.532,10.88115 0.75438,1.47286 2.90139,0.61442 6.87839,-2.75023 l 3.77845,-3.19664 0.0836,1.373 c 0.26747,4.39219 -9.94277,13.89403 -15.83375,14.73517 -2.62795,0.37522 -4.33478,-0.99072 -4.44804,-3.55965 -0.11865,-2.69149 0.30712,-4.26775 3.04837,-11.28536 3.72131,-9.5265 4.07361,-14.62028 1.14632,-16.5735 -1.80639,-1.20532 -3.45832,-0.84528 -6.6914,1.45832 -6.70152,4.77491 -10.93524,12.17828 -13.62171,23.81986 l -1.90233,8.24361 -5.02591,3.95273 c -2.76425,2.174 -5.11788,3.82366 -5.23026,3.66592 -0.11241,-0.15774 -0.0963,-0.70205 0.0358,-1.20954 z m 26.65312,-56.60823 c 5.82127,-4.67026 9.38477,-8.96084 10.99746,-13.24135 1.80467,-4.79004 0.9369,-7.54033 -2.43129,-7.70564 -1.68992,-0.0828 -2.48973,0.26594 -4.59266,2.00335 -3.32456,2.74666 -6.0867,7.89464 -8.12815,15.14887 -0.87041,3.09295 -1.71556,6.02628 -1.87813,6.51846 -0.67497,2.04363 1.07571,1.25322 6.03277,-2.72369 z"
     id="path16" /><path
     style="fill:#504416;fill-opacity:1;stroke-width:1.24761"
     d="m 583.33225,-241.33812 c 0.29725,-1.77067 1.07916,-3.24483 3.13363,-5.90796 2.19782,-2.849 4.61786,-4.56986 6.76586,-4.81118 l 1.66216,-0.18675 -1.03945,1.5628 c -2.22403,3.34382 -1.7043,5.6712 1.65129,7.39467 2.40634,1.23591 5.81364,1.35075 9.19735,0.31 2.42859,-0.74696 3.19258,-1.22658 4.25024,-2.66828 1.68436,-2.29587 1.58485,-4.72048 -0.27072,-6.59638 -1.42462,-1.44024 -7.21892,-3.65089 -10.52472,-4.01543 -2.3684,-0.26116 -5.85624,-2.14511 -7.03551,-3.80017 -0.98419,-1.38129 -0.74235,-4.40686 0.55217,-6.90793 2.20279,-4.25598 10.512,-10.64801 16.32245,-12.5564 4.28115,-1.40611 9.7482,-1.7821 11.71707,-0.80584 3.77675,1.87274 0.86453,7.63765 -6.08607,12.04769 l -1.48356,0.94132 0.6516,-2.45714 c 0.90477,-3.41187 -0.34798,-4.58406 -4.75797,-4.45199 -2.69312,0.0806 -3.91334,0.45451 -5.74671,1.76081 -1.69254,1.20596 -2.40232,2.10352 -2.60144,3.28972 -0.15062,0.89721 -0.0661,1.92288 0.18783,2.27926 0.59945,0.8413 4.83418,2.44061 8.32544,3.14423 8.80918,1.77537 11.57353,4.12678 10.96909,9.33045 -0.66599,5.73356 -5.92474,12.09662 -13.26827,16.05456 -2.23489,1.20453 -5.41709,2.5443 -7.07158,2.97728 -4.0896,1.07022 -9.25601,1.08051 -11.31589,0.0226 -2.23475,-1.14779 -4.45939,-4.31112 -4.18429,-5.94988 z"
     id="path15" /><path
     style="fill:#504416;fill-opacity:1;stroke-width:1.24761"
     d="m 516.64178,-231.04386 c -0.55097,-1.41878 -0.9651,-3.67873 -0.92026,-5.02209 0.0939,-2.81753 1.76842,-12.28904 2.83208,-16.02007 0.39864,-1.39823 0.86121,-3.28573 1.02796,-4.19442 0.16674,-0.90869 0.66326,-2.46499 1.10339,-3.45842 0.44012,-0.99342 1.03662,-2.38148 1.32557,-3.08453 3.47829,-8.46339 9.15281,-18.84867 13.76989,-25.20109 3.19574,-4.39688 4.82184,-6.10479 8.77271,-9.21409 3.74327,-2.94591 5.61814,-4.08523 8.21712,-4.9934 5.68621,-1.98688 9.4309,-0.54512 10.04993,3.86939 0.94388,6.73098 -7.07152,18.38345 -20.49147,29.78966 -2.95177,2.50885 -6.97862,5.71327 -8.94857,7.12096 -4.03688,2.88467 -4.14775,3.08669 -5.9955,10.92366 -1.46755,6.22439 -1.39211,12.94602 0.16992,15.1383 2.2466,3.15309 5.82386,2.66995 11.80966,-1.59501 l 3.68183,-2.62335 0.23614,-3.49826 c 0.12987,-1.92406 1.06401,-5.61156 2.07588,-8.19447 2.46755,-6.29874 6.46529,-10.72488 14.15614,-15.67304 6.85382,-4.40965 11.99746,-6.03345 16.91552,-5.34007 2.79358,0.39383 3.65658,0.79968 4.64226,2.18307 0.96114,1.34893 1.08081,2.25141 0.58043,4.37705 l -0.63034,2.67776 -4.0102,2.85732 -4.01019,2.85731 0.33053,-1.96885 c 0.18177,-1.08289 0.0766,-2.61733 -0.23366,-3.40987 -0.83089,-2.12226 -4.05169,-3.35551 -7.49084,-2.86827 -2.30048,0.32592 -3.38995,0.82365 -5.13415,2.34547 -2.61137,2.27845 -4.8854,5.95794 -5.93401,9.6015 -0.7647,2.65714 -0.42377,3.2937 1.15981,2.16539 0.48267,-0.34391 3.88242,-1.27914 7.55505,-2.07831 6.32355,-1.37603 15.40256,-4.05188 18.68842,-5.50805 0.82545,-0.36581 1.72408,-0.35179 1.99693,0.0313 0.27287,0.38296 -10e-4,1.24539 -0.60918,1.91651 -0.60792,0.67115 -1.30601,1.48102 -1.55133,1.79975 -0.92836,1.2061 -11.91675,4.78527 -23.48899,7.65087 -3.4072,0.84372 -4.97935,1.484 -5.07737,2.06784 -0.0781,0.46515 0.35444,1.786 0.96116,2.93525 4.05868,7.6879 15.45839,6.76512 24.1662,-1.9562 1.66651,-1.66907 3.26832,-2.99466 3.55961,-2.94576 0.29128,0.0488 0.55925,0.61464 0.5955,1.25718 0.10629,1.8866 -3.90949,6.6199 -9.13421,10.76604 -3.77434,2.99519 -5.57592,4.09591 -8.21063,5.01654 -7.95439,2.77948 -13.91946,2.23708 -18.11367,-1.64703 -1.31445,-1.21727 -2.62912,-2.82419 -2.92148,-3.57095 -0.29237,-0.74674 -0.66342,-1.26378 -0.82455,-1.14896 -0.16115,0.11478 -1.2444,1.4126 -2.40724,2.88393 -1.55261,1.96451 -3.24562,3.37782 -6.37301,5.32013 -4.90824,3.04829 -8.96375,4.38651 -11.65876,3.84715 -2.48311,-0.49699 -4.95872,-2.96244 -6.21002,-6.18463 z m 19.2306,-36.76417 c 8.99363,-7.40945 17.33858,-17.97557 18.45505,-23.36718 0.62363,-3.01166 0.20168,-3.88405 -2.20098,-4.55066 -4.47982,-1.24288 -11.5626,8.19326 -18.63553,24.82743 -2.04288,4.80451 -2.48174,6.09119 -2.20838,6.47484 0.0981,0.13756 2.16345,-1.38544 4.58984,-3.38443 z"
     id="path14" /><path
     style="fill:#504416;fill-opacity:1;stroke-width:1.24761"
     d="m 444.99773,-174.77902 c -0.95204,-2.9939 -1.03048,-5.64995 -0.25867,-8.76148 2.33791,-9.42604 10.80028,-18.63871 33.07005,-36.00214 l 7.6169,-5.93878 -0.82674,-0.84711 c -2.3215,-2.37866 -5.06225,-6.83686 -5.83273,-9.48768 -0.47549,-1.6359 -1.4246,-5.52282 -2.10915,-8.63757 -1.41994,-6.46092 -2.59297,-8.51319 -5.10714,-8.93524 l -1.73917,-0.29197 -2.83107,2.44417 -2.83106,2.44414 -0.65401,-0.91789 c -0.35971,-0.50483 -0.37937,-1.47174 -0.0443,-2.14868 0.91809,-1.85155 9.97111,-8.83959 12.79978,-9.88022 5.0523,-1.85864 8.99516,1.59698 10.08207,8.83615 0.33681,2.24332 0.61851,4.88223 0.62601,5.86423 0.0403,5.26805 2.76243,12.22985 5.26786,13.47219 l 1.34824,0.66854 2.74967,-2.33494 c 7.53131,-6.39533 11.40438,-17.3508 7.41137,-20.96411 -1.87223,-1.69418 -4.394,-1.42175 -7.42104,0.80172 -2.14742,1.57734 -2.61273,1.72136 -3.14553,0.97356 -0.37087,-0.52049 -0.25982,-1.28736 0.2729,-1.88454 5.1294,-5.75001 6.59263,-6.93931 10.1075,-8.21547 1.26332,-0.45867 3.6331,-0.59487 5.3462,-0.30728 2.47985,0.41629 3.32746,0.86798 4.36726,2.32734 2.48412,3.48642 2.47506,8.53315 -0.0235,13.06867 -4.38833,7.966 -10.93473,14.92421 -25.13013,26.71095 -9.30208,7.72372 -19.48202,16.60619 -22.78454,19.88056 -4.61257,4.5732 -8.36175,10.08689 -9.4835,13.94667 -1.26344,4.34748 -0.98016,6.68562 1.1769,9.713 1.29147,1.81257 2.21608,2.49628 4.17368,3.08622 5.69011,1.7148 11.23309,0.39093 17.79595,-4.25035 3.66552,-2.59228 4.50623,-2.99788 4.94306,-2.38478 0.94376,1.32453 -1.4888,4.25631 -6.45856,7.78406 -5.22206,3.70681 -10.84718,6.3627 -14.95313,7.06004 -3.38433,0.57478 -9.06209,0.0329 -11.82289,-1.12828 -2.4102,-1.01375 -5.03168,-3.66497 -5.69905,-5.76369 z"
     id="path13" /><path
     style="fill:#504416;fill-opacity:1;stroke-width:1.24761"
     d="m 391.70618,-233.44273 c -0.0828,-1.15726 0.32569,-2.86555 0.90789,-3.79618 1.35566,-2.16705 6.18157,-5.02527 9.17615,-5.43474 l 2.23268,-0.3053 -1.69977,1.98473 c -2.05107,2.39489 -2.16649,4.17894 -0.42815,6.61863 4.16727,5.84871 14.57875,5.22508 15.61289,-0.93519 l 0.35323,-2.10399 -1.86176,-1.97739 c -1.02397,-1.08757 -4.30185,-3.2737 -7.28419,-4.85813 -4.36693,-2.31999 -5.78023,-3.37283 -7.26073,-5.40887 -1.48114,-2.03693 -1.78487,-2.92251 -1.56323,-4.55783 0.39874,-2.94171 2.24876,-5.13471 6.68389,-7.92306 3.04723,-1.91576 4.74981,-2.57658 8.00631,-3.10749 4.80785,-0.78382 11.08766,0.0746 13.13908,1.79619 l 1.42872,1.19892 1.86807,-1.54541 c 2.27448,-1.88162 6.49415,-2.84974 11.07358,-2.54062 l 3.28222,0.22156 2.47369,-3.96988 c 4.61721,-7.40984 9.59823,-12.11836 14.61688,-13.81715 2.50867,-0.84917 4.54144,0.0984 2.8288,1.31874 -1.26426,0.90081 -7.14799,9.43962 -9.19183,13.33972 l -1.60612,3.06483 1.57436,0.34936 c 0.86588,0.19213 4.31151,0.25056 7.65694,0.12983 5.46454,-0.19719 9.06479,-0.9788 13.77471,-2.99035 1.29404,-0.55267 1.54858,-0.47734 1.48102,0.4383 -0.0565,0.76736 -1.04864,1.79209 -3.24221,3.34912 -5.64726,4.00852 -9.92338,5.05504 -19.9646,4.88612 -3.18828,-0.0538 -4.99358,0.21435 -5.38259,0.79904 -1.31236,1.9725 -4.08391,8.44374 -5.54599,12.94915 -3.40096,10.48011 -0.12944,16.90889 7.99142,15.70371 1.41937,-0.21064 3.76733,-1.06748 5.21768,-1.90409 4.53055,-2.6134 6.05513,-3.27466 6.40799,-2.77942 0.18771,0.26345 -0.22216,1.38888 -0.91083,2.50097 -0.98006,1.58266 -2.24061,2.62737 -5.80158,4.80821 -7.44915,4.56208 -13.43339,5.73502 -18.24612,3.57638 -3.01298,-1.35141 -5.6154,-4.60239 -6.16402,-7.7002 -0.84493,-4.77085 1.41127,-13.25982 6.02265,-22.66024 1.55087,-3.16146 2.69167,-5.92785 2.53514,-6.14753 -0.2972,-0.41714 -5.88139,-0.91966 -9.65045,-0.86847 l -2.18869,0.0299 -0.36935,2.19856 -0.36934,2.19857 -3.3449,2.34294 c -3.9287,2.75184 -5.46322,2.86946 -4.4785,0.34328 0.96783,-2.48292 -0.78855,-4.69571 -4.40247,-5.54643 -6.93916,-1.63346 -11.15102,2.62918 -6.61129,6.69101 0.83786,0.74965 3.84066,2.42165 6.67286,3.71557 3.91951,1.79062 5.6336,2.92518 7.17628,4.75 1.71944,2.03388 2.04133,2.81918 2.12268,5.17853 0.12868,3.72991 -1.64672,6.99291 -5.40063,9.9261 -10.47017,8.18109 -28.66665,5.99255 -29.34847,-3.52982 z"
     id="path12" /><path
     style="fill:#504416;fill-opacity:1;stroke-width:1.24761"
     d="m 320.822,-285.42372 c 0.1179,-0.2502 0.66947,-0.97586 1.22563,-1.61261 0.63804,-0.73047 0.85564,-1.9127 0.58964,-3.20369 -0.53649,-2.60393 0.4717,-4.55276 2.77681,-5.36759 4.0027,-1.41488 6.91089,0.7196 6.26032,4.59479 l -0.35479,2.11347 -3.8334,2.33859 c -2.10836,1.28621 -4.31486,2.45649 -4.90332,2.60063 -1.08215,0.26505 -2.15527,-0.62686 -1.76089,-1.46359 z"
     id="path11" /><path
     style="fill:#504416;fill-opacity:1;stroke-width:1.24761"
     d="m 327.96935,-246.05415 c -1.08153,-3.25107 -0.24612,-9.94051 1.66552,-13.33674 2.7176,-4.828 9.13701,-9.34083 15.9557,-11.21678 7.12768,-1.96094 16.42932,-0.58351 18.83209,2.78876 1.68444,2.3641 0.91971,4.56778 -2.58712,7.45501 -4.10294,3.37803 -6.57701,3.62477 -5.0283,0.50147 0.56211,-1.13361 0.46559,-1.86606 -0.40727,-3.09112 -2.13545,-2.9971 -7.28739,-4.83542 -10.89516,-3.88766 -2.29524,0.60297 -3.49774,1.52663 -5.76224,4.42612 -2.24175,2.87037 -3.03401,6.57304 -2.34411,10.95538 0.37581,2.38719 0.91337,3.5714 2.44194,5.37951 2.43939,2.88552 6.69106,5.19465 10.22753,5.55471 3.32016,0.338 8.34819,-0.58407 11.72337,-2.14994 1.39664,-0.64795 2.74268,-1.14396 2.99118,-1.10224 1.24929,0.20972 0.24655,1.7538 -2.33213,3.59115 -8.67232,6.17913 -21.10309,7.28819 -28.17686,2.5139 -3.3731,-2.27658 -4.98701,-4.42232 -6.30414,-8.38153 z"
     id="path10" /><path
     style="fill:#504416;fill-opacity:1;stroke-width:1.24761"
     d="m 306.35645,-248.78411 c 0.16046,-1.57618 1.65271,-6.39799 3.3161,-10.71512 1.66338,-4.31712 3.1884,-8.63379 3.38894,-9.5926 0.42803,-2.04646 -0.3386,-2.42839 -3.68119,-1.83392 -2.53716,0.45124 -2.95378,-0.43322 -0.89504,-1.90011 1.5443,-1.10032 11.76569,-3.90342 14.06143,-3.85617 1.13042,0.0233 1.45772,0.28503 1.51688,1.21323 0.0951,1.49172 -1.72081,6.48561 -4.7796,13.14452 -2.64926,5.7674 -3.71311,10.31167 -2.90017,12.38809 0.69183,1.76709 3.53368,2.73444 5.8812,2.00196 1.84595,-0.57599 2.88356,-0.38663 3.65149,0.66639 0.38406,0.52658 -0.19376,1.03808 -2.93026,2.59391 -4.30772,2.44918 -8.6983,3.41097 -12.01118,2.63114 -3.55885,-0.83776 -5.00479,-2.94823 -4.6186,-6.74132 z"
     id="path9" /><path
     style="fill:#504416;fill-opacity:1;stroke-width:1.24761"
     d="m 276.11486,-256.86812 c -1.106,-3.135 0.5074,-10.44405 3.62507,-16.42235 1.50215,-2.88046 3.34918,-6.06419 4.10454,-7.075 0.75535,-1.01076 1.35555,-2.10907 1.3338,-2.44068 -0.0442,-0.67314 -8.74793,-3.80236 -9.36102,-3.36553 -0.21442,0.15278 -0.61892,-0.0438 -0.8989,-0.43664 -1.47264,-2.0668 5.71283,-3.24632 10.80074,-1.77297 l 2.90258,0.84053 2.60783,-3.64236 c 3.40316,-4.75318 8.53414,-8.68173 12.32184,-9.43427 1.46182,-0.29043 2.77251,-0.36715 2.91263,-0.17052 0.14011,0.19666 -0.97144,1.92457 -2.47015,3.83984 -4.26802,5.45433 -7.90234,10.82922 -7.60474,11.24689 0.14923,0.20945 3.32001,0.97905 7.04614,1.71018 5.03193,0.98737 7.73164,1.14658 10.49411,0.61887 2.04561,-0.39077 3.82242,-0.56574 3.94845,-0.38886 0.41363,0.58053 -1.47407,2.38875 -3.6277,3.47501 -3.46891,1.74967 -6.8303,1.91926 -14.04264,0.70849 -3.76114,-0.6314 -7.18832,-0.8987 -7.61595,-0.59401 -0.42763,0.30468 -2.08681,2.9566 -3.68707,5.8931 -4.64348,8.52098 -5.20645,15.75585 -1.47355,18.93734 2.29317,1.95442 6.43486,2.30844 10.8188,0.92477 5.05143,-1.59439 6.0664,-0.813 2.57905,1.98549 -2.96056,2.37574 -8.6715,4.261 -12.80939,4.22858 -3.97639,-0.0312 -7.9195,-1.88299 -9.76251,-4.58481 -0.79987,-1.17261 -1.76376,-3.00912 -2.14196,-4.08113 z"
     id="path8" /><path
     style="fill:#504416;fill-opacity:1;stroke-width:1.24761"
     d="m 198.32237,-291.7176 c -0.68422,-3.69088 0.15009,-7.04679 2.70245,-10.87039 2.26243,-3.38924 5.17107,-5.43761 9.28002,-6.53529 6.37325,-1.70259 13.57143,0.26118 16.61501,4.53283 l 1.42547,2.00061 2.02669,-0.43097 c 1.11469,-0.23702 2.50363,-0.58706 3.08654,-0.77786 0.68852,-0.22536 1.26462,0.0535 1.6443,0.79601 0.48396,0.94639 0.14071,1.61802 -1.99563,3.90566 -3.9184,4.19581 -6.80761,11.31573 -6.85126,16.88366 -0.0125,1.57458 0.29493,3.31531 0.68282,3.8683 0.41727,0.59486 2.04467,1.12983 3.98526,1.31003 l 3.27998,0.30461 -0.62521,0.94996 c -0.92191,1.40072 -7.89533,3.79759 -10.01393,3.44194 -3.84448,-0.6454 -5.51455,-3.44473 -4.95077,-8.29835 0.20013,-1.72285 0.18346,-3.16274 -0.0368,-3.19977 -0.2205,-0.0371 -1.70224,0.43039 -3.29275,1.03865 -8.35213,3.19412 -15.40366,-0.514 -16.96193,-8.91964 z m 11.5537,5.07524 c 2.26166,1.16159 5.87609,0.44128 8.13386,-1.62099 2.03846,-1.86196 7.02785,-10.54178 6.02906,-10.4885 -0.36205,0.0193 -2.08276,-1.49093 -3.82382,-3.35611 -2.5807,-2.76467 -3.5899,-3.47187 -5.46215,-3.82754 -1.79645,-0.3413 -2.71948,-0.13497 -4.23871,0.94751 -2.01237,1.43383 -4.04162,4.82764 -4.67354,7.81623 -0.48925,2.31378 0.26651,6.70549 1.43666,8.34881 0.52234,0.73353 1.69174,1.71479 2.59864,2.18059 z"
     id="path7" /><path
     style="fill:#504416;fill-opacity:1;stroke-width:1.24761"
     d="m 235.21591,-238.77687 c 1.52168,-0.77442 5.43571,-3.33109 8.69784,-5.68149 4.97935,-3.58769 6.50865,-4.99931 9.53002,-8.79672 4.34457,-5.46044 9.5265,-14.86769 10.62693,-19.29205 1.33866,-5.38207 1.10304,-8.58905 -0.83032,-11.30253 -2.09153,-2.93541 -4.55379,-3.88665 -7.93379,-3.06501 -1.35771,0.33004 -3.58522,1.39571 -4.95002,2.36816 -2.01923,1.43872 -2.7836,2.47409 -4.10348,5.55837 -0.8921,2.08467 -1.98579,5.00577 -2.43042,6.49133 l -0.80839,2.70104 -2.3324,1.22275 c -2.3959,1.25606 -6.04663,2.05885 -6.44405,1.41703 -0.12289,-0.1985 1.5744,-4.87327 3.77177,-10.38837 3.64286,-9.14303 5.25993,-15.18555 4.39047,-16.40584 -0.18376,-0.25791 -1.5885,-0.39865 -3.12164,-0.31273 -1.53313,0.0858 -2.80703,-0.14145 -2.8309,-0.50524 -0.12913,-1.96869 6.75614,-3.93193 11.5212,-3.28509 2.07248,0.28132 2.73979,0.64443 3.08638,1.67939 0.58266,1.73995 0.33896,3.81778 -0.68055,5.8028 -1.16091,2.26032 -0.48668,2.76809 1.65209,1.24419 6.57699,-4.68617 15.48619,-3.67608 19.66383,2.22943 1.69044,2.38959 2.2215,7.53522 1.21528,11.77502 -0.52072,2.19401 -2.20554,6.3545 -3.74407,9.24551 -5.57457,10.47506 -11.65725,17.09704 -21.72514,23.65135 -7.41879,4.8297 -13.38096,7.31124 -14.33818,5.96778 l -0.64917,-0.91107 z"
     id="path6" /><path
     style="fill:#504416;fill-opacity:1;stroke-width:1.24761"
     d="m 134.27635,-339.77505 c -1.24443,-3.89264 -1.42684,-8.95735 -0.43771,-12.15356 1.00857,-3.25908 3.51238,-6.65358 5.63984,-7.64613 2.45414,-1.14495 8.27559,-0.19079 10.65319,1.74618 4.41832,3.59942 6.28211,8.51317 4.43855,11.70194 l -0.81854,1.41578 -1.78929,-0.30038 c -1.27879,-0.21468 -1.78561,-0.57874 -1.77634,-1.27602 0.051,-3.84858 -0.12727,-4.9435 -1.10763,-6.80051 -1.45627,-2.75849 -3.95061,-4.29341 -5.8002,-3.56928 -1.7799,0.69686 -3.81355,4.58605 -2.82919,5.41062 0.36719,0.30757 3.44646,2.94002 6.84279,5.84985 4.04192,3.46295 6.61822,5.29607 7.45766,5.30639 l 1.28249,0.0158 -0.39134,0.95757 c -0.57615,1.40976 -0.80633,1.47354 -3.14448,0.871 -2.24747,-0.57921 -7.11828,-4.03611 -11.32045,-8.03437 l -2.50478,-2.38324 -0.30971,1.15722 c -0.39255,1.46688 0.70061,6.78894 1.93698,9.43009 1.60354,3.42552 3.7285,4.98122 7.56996,5.54203 1.9221,0.2806 3.61734,0.68232 3.76724,0.89269 0.14988,0.21037 -0.69291,0.89218 -1.8729,1.51514 -3.88925,2.05325 -9.90115,0.0887 -12.9288,-4.22473 -0.83157,-1.18475 -1.98239,-3.62558 -2.55734,-5.42406 z"
     id="path5" /><path
     style="fill:#504416;fill-opacity:1;stroke-width:1.24761"
     d="m 118.26981,-358.4576 c -1.62455,-3.3213 -1.99096,-7.59686 -0.82399,-9.61532 0.6477,-1.12028 1.07224,-1.333 2.35976,-1.18234 2.0402,0.23875 2.49533,0.94866 1.58527,2.47277 -1.48959,2.49471 1.4304,11.63027 3.92897,12.29228 0.59413,0.1574 1.49451,-0.009 2.00084,-0.36974 1.163,-0.82865 0.27313,-5.86868 -1.92193,-10.88545 -2.09612,-4.79063 -2.99319,-10.91673 -1.84033,-12.56751 2.35987,-3.37909 6.0836,-2.40006 10.22504,2.6883 1.98722,2.44159 2.71463,3.75883 2.93741,5.31919 0.31751,2.22364 -0.12002,2.78825 -2.6788,3.45733 l -1.63258,0.42689 0.13462,-1.3343 c 0.3721,-3.68874 -2.04668,-9.35991 -3.93912,-9.23579 -1.04835,0.0686 -1.59861,3.48999 -0.90565,5.63079 0.32235,0.99581 1.32861,3.36433 2.23614,5.26338 1.88744,3.94946 2.49838,7.17569 2.09994,11.08926 -0.22469,2.20692 -0.61849,2.97393 -2.05086,3.99451 -2.25469,1.6065 -4.93256,1.15015 -7.47996,-1.27469 -2.18011,-2.07524 -2.36094,-2.33869 -4.23477,-6.16956 z"
     id="path4" /><path
     style="fill:#504416;fill-opacity:1;stroke-width:1.24761"
     d="m 164.05154,-280.78105 c 0.1209,-0.28751 1.59173,-1.05774 3.26844,-1.71163 7.92543,-3.09079 15.24296,-9.0362 19.97699,-16.2311 4.84317,-7.36076 6.47198,-16.11209 3.71816,-19.97703 -0.47111,-0.6612 -1.97014,-1.45413 -3.33119,-1.76207 l -2.47464,-0.5599 -2.63497,1.93547 c -1.44925,1.0645 -2.74732,2.35355 -2.88458,2.86456 -0.46022,1.71316 -4.63104,9.21019 -5.44755,9.79196 -0.93244,0.66438 -5.87467,1.29618 -6.23068,0.79651 -0.13156,-0.18462 0.83378,-2.26131 2.14517,-4.61483 6.1728,-11.07817 7.07161,-18.37387 2.62659,-21.32001 -1.09675,-0.7269 -4.19606,-0.27378 -5.7628,0.84255 -1.62472,1.15762 -3.31337,3.92894 -5.58321,9.16286 l -1.86097,4.29112 -2.91561,0.3489 c -1.60358,0.19189 -2.99862,0.0792 -3.10008,-0.25042 -0.10155,-0.32965 1.40365,-4.316 3.34468,-8.85857 1.94103,-4.54256 3.86932,-9.50347 4.28506,-11.02422 l 0.7559,-2.76501 -2.16396,-1.06599 c -1.49652,-0.73723 -2.12007,-1.32734 -2.02171,-1.91329 0.20612,-1.22775 5.76688,-1.05117 8.12527,0.25797 l 1.90528,1.05764 0.0126,1.54778 c 0.007,0.85128 -0.31696,2.55503 -0.71958,3.78614 l -0.73206,2.23833 1.57044,-0.69408 c 2.80799,-1.241 7.08862,-1.61063 8.75298,-0.7558 1.93707,0.99488 5.01457,5.13045 5.3054,7.12943 0.11391,0.78163 0.079,2.3892 -0.0773,3.57236 l -0.28415,2.15119 2.13624,-1.05976 c 3.44274,-1.70789 6.97258,-1.81023 9.86961,-0.28615 1.42143,0.74779 3.13292,2.12943 3.80331,3.07032 1.74846,2.45394 2.40703,7.8318 1.46556,11.96768 -1.00005,4.39321 -5.04531,11.73101 -8.33207,15.11376 -5.58701,5.75014 -16.29109,12.20652 -23.22489,14.00856 -2.42352,0.62984 -3.81369,0.17063 -3.28548,-1.0852 z"
     id="path2" /><path
     id="path3"
     style="fill:#ffd42a;stroke-width:1.24761"
     d="m 449.94985,-775.52836 c -9.90528,0.2256 -20.64026,4.59847 -27.4918,11.20598 -8.07748,7.7898 -14.07953,21.0338 -15.07395,33.17855 -0.74192,9.06079 1.13412,22.82546 4.12062,30.44932 2.31769,5.91656 7.1804,13.35737 11.95256,18.18853 3.1656,3.20473 10.50858,7.43962 15.23515,8.86714 5.54186,1.67376 14.74073,2.90338 20.12038,2.59497 5.6889,-0.32613 14.51682,-2.08454 20.88946,-4.07492 4.84264,-1.51253 11.27172,-4.60256 12.50658,-6.03433 l 0.093,-0.10181 -0.005,-0.0973 0.093,-0.10181 c 0.0731,-0.80693 -0.38701,-3.21912 -1.1383,-5.70476 -0.85862,-2.84073 -1.85799,-6.58162 -2.23189,-8.28931 -0.28041,-1.28077 -0.70896,-2.39969 -1.00951,-2.88109 l -0.10181,-0.0929 -0.005,-0.0973 -0.0973,0.005 -0.005,-0.0973 -0.0973,0.005 c -0.30213,-0.013 -3.04218,1.03011 -6.13833,2.32892 -10.1976,4.27788 -23.08487,5.99134 -30.25904,4.01437 -3.75065,-1.03357 -8.85073,-4.58805 -11.68992,-8.15069 -1.40281,-1.76022 -3.08533,-5.10881 -4.28549,-8.3908 -1.09129,-2.98426 -1.90921,-5.37565 -1.80657,-5.38158 0.10268,-0.006 2.5946,-0.32324 5.53225,-0.64258 6.2538,-0.67981 31.07224,-2.60129 44.43072,-3.48982 5.12302,-0.34078 9.8011,-0.75769 10.40066,-0.8646 0.0518,-0.0136 0.24525,0.005 0.29209,-0.0134 l 0.093,-0.10181 0.0929,-0.1018 0.0973,-0.005 0.093,-0.10181 0.0929,-0.1018 c 0.24228,-0.4798 0.43559,-1.50208 0.54392,-3.0495 0.34244,-4.89169 -0.84391,-16.15784 -2.24269,-21.3633 -2.54271,-9.46272 -5.7279,-15.32866 -10.87295,-20.18917 -8.87691,-8.38601 -18.17865,-11.63428 -32.12904,-11.31656 z m 144.64182,0.91662 c -1.79747,0.13955 -3.53776,0.33788 -5.33751,0.6337 -4.68106,0.76941 -6.78203,1.55202 -10.94457,3.9141 -2.83499,1.60876 -6.56938,4.23963 -8.22238,5.83894 -6.50117,6.29008 -12.49533,17.54643 -14.19859,26.69895 -0.48051,2.58198 -0.9321,8.31052 -0.98508,12.63156 -0.21318,17.38867 5.68083,31.19839 17.71415,41.83063 8.45443,7.47006 21.57665,11.96853 34.19153,11.61277 6.30708,-0.17785 15.24332,-2.04908 18.3668,-3.76473 l 2.66859,-1.39013 -0.0359,-2.92548 c -0.0155,-1.57352 -0.35912,-5.79328 -0.8202,-9.42697 l -0.88616,-6.5944 -3.46974,0.9388 c -13.50902,3.83405 -23.59573,2.71691 -31.58352,-3.63333 -5.15987,-4.10206 -7.52967,-8.66559 -9.19516,-17.63127 -1.53285,-8.25179 -1.12655,-15.09537 1.26257,-21.52317 1.72951,-4.65315 5.28627,-9.9276 8.40727,-12.48219 3.23217,-2.64559 8.61795,-3.88381 14.77304,-3.40572 5.59407,0.43453 9.85366,1.8349 15.8498,5.229 l 4.10756,2.34951 3.19855,-9.0248 3.29591,-9.02927 -4.33337,-3.02221 c -8.87962,-6.02175 -21.24136,-8.8009 -33.82363,-7.82429 z m -238.9153,11.48107 c -8.25593,0.0549 -15.97439,2.77703 -23.33635,8.18692 -2.62986,1.93253 -3.92988,3.51776 -7.0492,8.02959 l -3.94263,5.54618 -1.4082,-5.2046 c -2.15718,-7.76543 -2.00135,-7.61125 -7.33467,-6.78817 -7.09249,1.09456 -17.85172,3.38771 -18.16761,3.85322 -0.1572,0.23166 3.91376,23.01267 9.04077,50.61726 5.12706,27.60461 9.42725,50.26771 9.61611,50.39588 0.18888,0.12814 6.01592,-0.93026 12.87006,-2.34321 l 12.46727,-2.61755 -0.30131,-2.32797 c -0.12528,-1.30945 -1.86848,-11.76186 -3.88939,-23.23962 -5.97239,-33.92037 -6.3546,-36.39392 -6.15362,-40.79671 0.23863,-5.22811 1.1976,-7.95332 4.12306,-12.28682 3.67224,-5.43978 9.12707,-8.04885 15.84786,-7.65025 2.6232,0.15557 3.7711,0.5959 6.35147,2.34474 5.35966,3.63252 5.77057,4.82946 11.79625,38.29524 2.95247,16.39768 5.53508,31.45395 5.8206,33.49408 0.24983,1.7851 0.69664,3.46281 0.96101,3.95657 l 0.005,0.0973 0.0973,-0.005 c 0.74391,0.50479 24.66559,-3.83325 25.16036,-4.5624 0.38556,-0.56819 -0.95555,-8.68679 -7.22533,-45.04096 -0.75923,-4.40229 -1.84651,-11.0095 -2.42757,-14.72005 -1.33749,-8.54104 -4.23208,-19.20853 -6.31472,-22.93389 -3.4556,-6.18123 -11.51659,-12.0929 -18.17461,-13.4165 -2.8742,-0.57138 -5.67944,-0.90222 -8.4314,-0.88391 z m 95.90056,6.16415 c 6.26078,-0.47195 11.83489,2.46641 15.00044,7.99971 1.68848,2.95142 4.0465,11.61689 3.73746,13.48948 l -0.0929,0.1018 0.005,0.0973 0.005,0.0973 c -0.1839,0.24721 -5.63826,0.79261 -12.0426,1.23219 -10.83493,0.7437 -14.60687,1.03843 -22.07152,1.68956 -1.59796,0.13907 -3.06565,0.20751 -3.31053,0.15099 l -0.10181,-0.0929 -0.005,-0.0973 c -0.21154,-1.5759 1.33632,-9.66312 2.53853,-12.79999 2.35369,-6.14132 6.89712,-9.92707 13.62552,-11.45176 0.91617,-0.20762 1.81859,-0.34902 2.71299,-0.41643 z m 216.09211,-4.8787 c -7.11039,0.60563 -12.80227,3.46069 -16.78604,8.47362 -6.52537,8.21114 -7.66217,18.50729 -3.2001,28.24635 2.97729,6.49834 5.06664,8.40214 19.76868,18.41749 l 13.09303,8.96484 1.87254,2.54902 c 4.42941,5.9048 2.9075,12.60612 -3.33492,14.59257 -3.05118,0.97094 -10.09981,-0.28139 -16.32744,-2.86551 -5.60496,-2.32575 -15.68223,-8.50046 -16.96146,-10.34955 l -0.0973,0.005 -0.005,-0.0973 -0.1018,-0.0929 -0.005,-0.0973 -0.005,-0.0973 -0.0973,0.005 -0.0973,0.005 -0.0973,0.005 -0.0929,0.10181 c -0.13349,0.18079 -0.35423,0.56213 -0.53979,1.0003 -0.3715,0.87731 -2.19759,4.91911 -4.07931,8.96743 l -3.46877,7.37843 1.92104,1.47353 c 4.63086,3.87817 15.63224,9.43272 23.76426,11.89317 4.29532,1.29959 13.19627,2.48682 18.45623,2.47572 7.1974,-0.0152 11.03183,-0.8812 15.36167,-3.33499 5.54892,-3.14464 9.1115,-7.35567 10.63341,-12.87642 1.72305,-6.25023 1.95079,-9.29926 1.20614,-14.20279 -0.85894,-5.65628 -2.2326,-8.58489 -6.06541,-13.18816 -2.50347,-3.00673 -4.733,-4.85144 -15.90849,-12.93443 -9.12823,-6.60225 -13.62781,-10.14295 -14.87709,-11.71303 -5.22035,-6.56094 -3.61922,-12.73646 3.47669,-13.62334 3.89824,-0.48723 6.1407,-0.0774 11.512,2.10941 6.5081,2.6496 11.99067,5.76733 14.52692,8.31403 0.86697,0.87053 1.80523,1.65758 2.33274,1.94261 l 0.0973,-0.005 0.1018,0.0929 0.0973,-0.005 0.0973,-0.005 c 0.45996,-0.42302 2.16534,-3.57179 3.86268,-7.29882 2.31072,-5.07397 2.96554,-6.91592 2.76499,-7.8342 l -0.005,-0.0973 -0.10181,-0.0929 -0.005,-0.0973 -0.1018,-0.093 c -1.556,-2.1462 -7.34768,-6.3441 -12.21228,-8.90744 -9.13742,-4.81481 -17.81383,-7.10218 -27.25555,-7.1481 -1.07541,-0.005 -2.10447,-0.0418 -3.12022,0.0448 z m -427.7157,28.57992 c -4.54156,0.20212 -12.85553,1.91104 -17.40199,3.5256 -4.23787,1.50497 -13.42261,6.61638 -17.12665,9.56244 -3.05846,2.43256 -4.24268,3.87499 -8.14657,9.64074 -3.91904,5.78809 -4.74104,7.45099 -5.74313,10.99471 -3.26213,11.53589 -3.75115,20.42133 -1.61967,30.80868 1.85281,9.02937 3.42952,13.41994 7.04893,19.77815 3.74657,6.58158 6.30196,9.95626 10.17264,13.39114 5.85203,5.19311 16.02294,10.11059 22.14863,10.69842 0.54743,0.0526 2.5595,0.30507 4.51447,0.57468 4.42901,0.61078 19.80389,-2.19285 25.64276,-4.68198 4.53678,-1.93405 10.94967,-6.38629 14.9446,-10.34105 1.66428,-1.64756 4.12654,-4.87583 6.61977,-8.88813 3.14109,-5.05491 4.16503,-7.36579 5.33588,-11.36643 2.91485,-9.95967 3.33438,-20.13641 1.12394,-30.98121 -1.77412,-8.70421 -3.29742,-12.79101 -7.46505,-20.34458 -5.52065,-10.00585 -14.28982,-17.20651 -24.6374,-20.34201 -4.50189,-1.36415 -10.79305,-2.23478 -15.41116,-2.02917 z m 504.74267,-4.08986 c -2.79568,0.28388 -5.25905,1.05115 -7.31562,2.18746 -3.04652,1.68332 -6.88042,5.64617 -8.47864,8.77776 -2.18409,4.2796 -2.92019,11.15444 -1.79002,16.37597 1.89687,8.7639 6.83637,15.65789 17.60089,24.37061 11.87427,9.61092 15.77688,14.06561 16.78577,19.33408 0.95863,5.006 -1.81901,8.4895 -6.73044,8.60048 -1.15544,0.0261 -3.87615,-0.44645 -6.09902,-1.08787 -3.41787,-0.98621 -5.16281,-1.91264 -11.10095,-5.93341 -3.8619,-2.61494 -8.53327,-6.04148 -10.39748,-7.62421 l -3.35082,-2.87189 -1.88934,3.50115 c -1.02962,1.95132 -2.97568,5.26695 -4.34951,7.32103 l -2.56202,3.72696 0.82779,1.03553 c 0.45211,0.57387 2.30206,2.39658 4.09011,4.10658 4.17766,3.99524 5.49611,4.90212 12.09717,8.52241 10.45759,5.73537 19.56352,8.93364 26.77347,9.41423 11.83862,0.78914 19.96944,-3.70335 23.22058,-12.86504 1.88558,-5.31354 2.21152,-9.5967 1.2591,-15.1809 -1.47773,-8.66425 -6.77225,-16.57576 -17.49052,-26.22948 -14.84793,-13.3732 -15.35007,-13.95592 -16.67477,-16.89988 -0.97919,-2.17611 -1.09817,-3.32919 -0.53188,-5.24457 l 0.66793,-2.46973 2.00478,-0.96957 c 2.68002,-1.28516 6.61444,-0.8861 11.76858,1.31715 4.72354,2.01917 9.7872,5.73416 14.23513,10.47389 1.42395,1.51734 2.72059,2.91497 2.97021,3.08438 l 0.0973,-0.005 0.0973,-0.005 0.0973,-0.005 c 0.93304,-0.6064 3.49119,-4.2941 5.94262,-8.75969 l 1.88933,-3.50114 -1.15987,-1.89853 c -4.25088,-6.50491 -17.2729,-15.68152 -26.11093,-18.42095 -6.11271,-1.89468 -11.73427,-2.65264 -16.39374,-2.1795 z m -509.30691,25.95874 c 5.74839,-0.58628 11.1909,1.38847 15.58435,5.82653 4.937,4.98712 8.21345,12.39998 10.2139,22.85364 1.53802,8.03713 1.42326,14.45245 -0.3244,20.69981 -0.87908,3.14236 -1.54225,4.53213 -3.85382,7.49357 -2.24842,2.88052 -3.66592,4.06014 -6.57156,5.6661 -4.05265,2.2399 -9.32988,3.24527 -12.86119,2.53794 -2.69382,-0.53959 -10.17482,-5.01699 -12.2386,-7.34511 -8.03666,-9.06588 -12.50676,-26.70712 -9.86664,-38.77352 1.79526,-8.20515 7.186,-14.81926 14.12915,-17.52411 1.98026,-0.77145 3.87271,-1.23942 5.78881,-1.43485 z m 288.78825,3.80724 c -4.64715,0.40755 -8.64301,2.46148 -10.95314,5.86592 -2.03312,2.99622 -2.71251,5.46267 -2.8576,10.08254 -0.12588,4.00882 1.41284,8.72314 3.73269,11.24557 0.85388,0.92845 1.6775,1.81151 1.84588,1.96481 l 0.1018,0.0929 c 1.29422,0.8263 6.42915,2.60452 8.32548,2.84016 7.79741,0.96897 15.53486,-4.75731 16.79871,-12.47461 1.7049,-10.41035 -3.12736,-18.04173 -12.20502,-19.44541 -1.64946,-0.25507 -3.23977,-0.30774 -4.78882,-0.1719 z" /></svg>
