<?xml version="1.0" encoding="UTF-8" standalone="no"?>
<svg
   height="24px"
   viewBox="0 -960 960 960"
   width="24px"
   fill="#1f1f1f"
   version="1.1"
   id="svg1"
   sodipodi:docname="icon.svg"
   inkscape:version="1.4.3 (0d15f75042, 2025-12-25)"
   xmlns:inkscape="http://www.inkscape.org/namespaces/inkscape"
   xmlns:sodipodi="http://sodipodi.sourceforge.net/DTD/sodipodi-0.dtd"
   xmlns="http://www.w3.org/2000/svg"
   xmlns:svg="http://www.w3.org/2000/svg">
  <defs
     id="defs1" />
  <sodipodi:namedview
     id="namedview1"
     pagecolor="#ffffff"
     bordercolor="#000000"
     borderopacity="0.25"
     inkscape:showpageshadow="2"
     inkscape:pageopacity="0.0"
     inkscape:pagecheckerboard="0"
     inkscape:deskcolor="#d1d1d1"
     inkscape:zoom="28.333333"
     inkscape:cx="12"
     inkscape:cy="12"
     inkscape:window-width="1707"
     inkscape:window-height="888"
     inkscape:window-x="0"
     inkscape:window-y="0"
     inkscape:window-maximized="1"
     inkscape:current-layer="svg1" />
  <path
     d="M 480,0 48,-240 v -480 l 432,-240 432,240 v 480 z M 340.8,-612 q 27.6,-28.8 63.6,-44.4 36,-15.6 75.6,-15.6 39.6,0 75.6,15.6 36,15.6 63.6,44.4 l 144,-80.4 L 480,-849.6 196.8,-692.4 Z M 432,-136.8 V -294 Q 367.2,-310.8 327.6,-362.4 288,-414 288,-480 q 0,-13.2 1.2,-24.6 1.2,-11.4 4.8,-23.4 l -150,-84 v 315.6 z m 115.8,-275.4 q 28.2,-28.2 28.2,-67.8 0,-39.6 -28.2,-67.8 -28.2,-28.2 -67.8,-28.2 -39.6,0 -67.8,28.2 -28.2,28.2 -28.2,67.8 0,39.6 28.2,67.8 28.2,28.2 67.8,28.2 39.6,0 67.8,-28.2 z M 528,-136.8 816,-296.4 V -612 l -150,84 q 3.6,12 4.8,23.4 1.2,11.4 1.2,24.6 0,66 -39.6,117.6 -39.6,51.6 -104.4,68.4 z"
     id="path1"
     style="fill:#904a41;fill-opacity:1;stroke-width:1.2" />
  <path
     style="fill:#f0dfdd;fill-opacity:1;stroke-width:1.52113"
     d="m 476.17043,-855.84309 c -93.68479,51.28266 -187.08712,103.10557 -280.20223,155.41637 -7.99562,5.5391 -2.3815,15.64957 5.02685,18.20302 44.53427,26.48425 89.86355,51.6615 135.48724,76.20191 11.61586,2.40771 18.08518,-10.54044 26.66427,-16.0461 39.85332,-33.21367 94.58271,-47.94657 145.34502,-39.56176 39.61196,5.68816 76.19748,25.76125 104.3931,53.82825 9.84471,7.08797 19.85445,-4.63295 28.87308,-7.91259 41.33246,-23.16522 83.13111,-45.68185 123.33766,-70.73738 7.36403,-7.30789 -1.17168,-15.9762 -8.67636,-18.37955 -90.70021,-50.6544 -181.45524,-101.22796 -272.63112,-151.01811 -2.55446,-0.0845 -5.22265,-1.39105 -7.61751,0.006 z"
     id="path2" />
  <path
     style="fill:#f0dfdd;fill-opacity:1;stroke-width:1.52113"
     d="m 475.13654,-583.24054 c -40.5194,0.22368 -77.46075,29.45606 -92.1975,66.35918 -13.22838,35.04468 -6.18781,76.88772 19.18641,104.7379 23.16524,27.49189 61.15389,41.27508 96.49943,33.85393 32.40467,-4.76915 59.4692,-27.9546 74.6303,-56.19551 19.20465,-39.21128 11.1259,-90.71784 -21.97317,-120.05316 -19.50284,-19.90518 -48.32567,-30.83919 -76.14547,-28.70234 z"
     id="path3" />
  <path
     style="fill:#f0dfdd;fill-opacity:1;stroke-width:1.52113"
     d="m 144.84408,-618.22942 c -11.77594,4.27309 -6.7987,19.54271 -8.36025,29.07966 -0.91275,97.47914 -0.23704,194.96621 -0.38918,292.4485 2.90708,11.38264 17.41278,12.7868 25.72536,19.33619 87.91671,48.58103 175.55662,97.66921 263.77893,145.69121 9.80013,3.95343 14.31786,-7.22992 12.91966,-15.05623 0.76241,-49.42526 1.09772,-99.07828 0.0992,-148.37415 -3.88491,-10.46477 -18.04487,-9.16992 -26.95348,-13.87296 -67.04067,-25.31871 -115.41482,-93.29854 -115.11329,-165.32375 -1.25353,-18.27561 1.71622,-35.82772 4.08061,-53.64442 -1.80262,-10.99006 -16.26708,-12.4545 -23.9394,-18.6869 -42.37164,-23.68786 -84.63848,-47.5846 -127.04703,-71.19311 -1.59836,-0.11162 -3.2049,-0.33185 -4.80106,-0.40426 z"
     id="path4" />
  <path
     style="fill:#f0dfdd;fill-opacity:1;stroke-width:1.52113"
     d="m 812.02155,-618.63942 c -49.35134,27.88577 -98.98527,55.28485 -148.27419,83.28466 -8.72721,7.86675 -1.274,20.14334 -1.32184,30.04821 3.21386,34.33355 0.76155,70.34263 -14.48638,101.64515 -21.93098,49.51924 -66.94113,87.82019 -119.44948,101.27479 -12.75808,4.77588 -5.84386,21.18098 -7.61078,31.53856 0.55124,44.46714 -1.32312,89.10156 1.51665,133.46996 3.87758,10.79197 15.90751,4.55315 22.38652,0.0603 91.65231,-50.45164 183.13329,-101.21247 274.68771,-151.84228 8.55167,-8.05711 2.75056,-21.43198 4.45333,-31.87831 0.0347,-96.55687 0.069,-193.11374 0.10345,-289.67065 -0.78091,-6.18148 -5.98869,-9.63272 -12.00499,-7.93042 z"
     id="path5" />
</svg>
