<?xml version="1.0" encoding="UTF-8" standalone="no"?>
<svg
   width="24px"
   height="24px"
   fill="#1f1f1f"
   version="1.1"
   viewBox="0 -960 960 960"
   id="svg3"
   sodipodi:docname="icon.svg"
   inkscape:version="1.4.3 (0d15f75042, 2025-12-25)"
   xmlns:inkscape="http://www.inkscape.org/namespaces/inkscape"
   xmlns:sodipodi="http://sodipodi.sourceforge.net/DTD/sodipodi-0.dtd"
   xmlns="http://www.w3.org/2000/svg"
   xmlns:svg="http://www.w3.org/2000/svg">
  <defs
     id="defs3" />
  <sodipodi:namedview
     id="namedview3"
     pagecolor="#ffffff"
     bordercolor="#000000"
     borderopacity="0.25"
     inkscape:showpageshadow="2"
     inkscape:pageopacity="0.0"
     inkscape:pagecheckerboard="0"
     inkscape:deskcolor="#d1d1d1"
     inkscape:zoom="14.166667"
     inkscape:cx="3.4588235"
     inkscape:cy="19.411765"
     inkscape:window-width="1707"
     inkscape:window-height="888"
     inkscape:window-x="0"
     inkscape:window-y="0"
     inkscape:window-maximized="1"
     inkscape:current-layer="svg3" />
  <path
     d="m 298.79883,-839.96287 c -28.64506,2.88446 -55.57831,17.02653 -74.99279,38.16675 -39.79157,39.95046 -79.91136,79.58547 -119.4907,119.73424 -28.1626,29.85934 -38.192257,75.21895 -25.372199,114.19868 6.463952,21.21792 19.870269,39.59093 36.059449,54.49393 39.12586,38.91247 77.80407,78.29001 117.33353,116.78844 28.62998,26.50182 71.00551,36.85388 108.61788,26.45658 22.64212,-5.85577 42.6678,-19.28226 58.50556,-36.28443 39.36362,-39.21402 78.81422,-78.3538 117.84383,-117.90182 28.16027,-29.86166 38.18878,-75.22127 25.36756,-114.19984 -6.46523,-21.21792 -19.87375,-39.58862 -36.06293,-54.49277 -39.0122,-38.84984 -77.70779,-78.02674 -116.91601,-116.67246 -24.09994,-22.57717 -58.0718,-33.71324 -90.87463,-30.29657 z"
     fill="#ca8a04"
     stroke-linecap="square"
     stroke-width="10.64"
     style="paint-order:markers fill stroke"
     id="path1" />
  <path
     d="M 310.53567,-409.38813 504.21659,-603.06905 310.53567,-796.74998 116.85473,-603.06905 Z m -32.47346,98.58012 -259.787589,-259.7876 Q 4.3574286,-584.5128 4.3574286,-603.06905 q 0,-18.55626 13.9171924,-32.47345 L 278.06221,-895.33009 q 13.91719,-13.91719 32.47346,-13.91719 18.55625,0 32.47344,13.91719 l 245.8704,245.8704 h 278.34384 q 19.71603,0 33.05333,13.3373 13.33732,13.33731 13.33732,33.05334 0,19.71602 -13.33732,33.05333 -13.3373,13.3373 -33.05333,13.3373 H 588.87951 l -245.8704,245.87041 q -13.91719,13.91719 -32.47344,13.91719 -18.55627,0 -32.47346,-13.91719 z"
     id="path2"
     style="stroke-width:1.15977" />
  <path
     d="m 728.05144,-463.89713 c -64.17334,0 -118.85283,22.63399 -164.08371,67.86487 -45.23087,45.23087 -67.86487,99.915 -67.86487,164.0837 0,64.16869 22.634,118.85282 67.86487,164.083691 C 609.19861,-22.633994 663.88274,0 728.05144,0 792.22013,0 846.90425,-22.633994 892.13513,-67.864869 937.366,-113.09574 960,-167.77987 960,-231.94856 c 0,-64.1687 -22.634,-118.85283 -67.86487,-164.0837 -45.23088,-45.23088 -99.915,-67.86487 -164.08369,-67.86487 z m -69.58597,139.17192 h 139.17192 c 6.18538,0 11.57957,2.33762 16.21817,6.9767 4.63906,4.63906 6.97669,10.03313 6.97669,16.21816 v 139.17192 c 0,6.18538 -2.33763,11.57958 -6.97669,16.21818 -4.63906,4.63906 -10.03313,6.97668 -16.21817,6.97668 -6.18503,0 -11.57956,-2.33762 -16.21816,-6.97668 -4.63907,-4.63907 -6.97669,-10.03314 -6.97669,-16.21818 v -83.5391 l -113.62112,113.71157 c -4.63906,4.63907 -10.12383,6.97669 -16.30863,6.97669 -6.1848,0 -11.57957,-2.33762 -16.21817,-6.97669 -4.63906,-4.63906 -6.97669,-10.03313 -6.97669,-16.21816 0,-6.18503 2.33763,-11.66956 6.97669,-16.30863 L 742.0062,-278.33386 h -83.5391 c -6.18538,0 -11.57957,-2.33763 -16.21817,-6.97669 -4.63906,-4.63907 -6.97669,-10.03315 -6.97669,-16.21818 0,-6.18503 2.33763,-11.57957 6.97669,-16.21816 4.63906,-4.6386 10.03313,-6.97669 16.21817,-6.97669 z"
     id="path3"
     style="stroke-width:1.15977" />
</svg>
