<?xml version="1.0" encoding="UTF-8" standalone="no"?>
<svg
   height="24px"
   viewBox="0 -960 960 960"
   width="24px"
   fill="#1f1f1f"
   version="1.1"
   id="svg1"
   sodipodi:docname="icon.svg"
   inkscape:version="1.4.3 (0d15f75042, 2025-12-25)"
   xmlns:inkscape="http://www.inkscape.org/namespaces/inkscape"
   xmlns:sodipodi="http://sodipodi.sourceforge.net/DTD/sodipodi-0.dtd"
   xmlns="http://www.w3.org/2000/svg"
   xmlns:svg="http://www.w3.org/2000/svg">
  <defs
     id="defs1" />
  <sodipodi:namedview
     id="namedview1"
     pagecolor="#ffffff"
     bordercolor="#000000"
     borderopacity="0.25"
     inkscape:showpageshadow="2"
     inkscape:pageopacity="0.0"
     inkscape:pagecheckerboard="0"
     inkscape:deskcolor="#d1d1d1"
     inkscape:zoom="14.166667"
     inkscape:cx="3.1058824"
     inkscape:cy="9.7411765"
     inkscape:window-width="1707"
     inkscape:window-height="888"
     inkscape:window-x="0"
     inkscape:window-y="0"
     inkscape:window-maximized="1"
     inkscape:current-layer="svg1" />
  <path
     id="rect2"
     style="fill:#e5ffd2;fill-opacity:1;stroke-width:916.525;stroke-linecap:square;paint-order:markers fill stroke"
     d="M 79.020342,-868.97969 H 279.51018 l 200.48982,104 200.48984,-104 H 880.97966 V -67.020377 H 79.020342 Z"
     sodipodi:nodetypes="cccccccc" />
  <path
     d="M 116,0 C 87.4,0 62.916667,-10.183333 42.55,-30.55 22.183333,-50.916667 12,-75.4 12,-104 v -648 c 0,-28.6 10.183333,-53.08333 30.55,-73.45 C 62.916667,-845.81667 87.4,-856 116,-856 h 217.1 c 9.53333,-30.33333 28.16667,-55.25 55.9,-74.75 27.73333,-19.5 58.06667,-29.25 91,-29.25 34.66667,0 65.65,9.75 92.95,29.25 27.3,19.5 45.71667,44.41667 55.25,74.75 H 844 c 28.6,0 53.08333,10.18333 73.45,30.55 20.36667,20.36667 30.55,44.85 30.55,73.45 v 648 c 0,28.6 -10.18333,53.083333 -30.55,73.45 C 897.08333,-10.183333 872.6,0 844,0 Z m 0,-104 H 844 V -752 H 740 v 104 c 0,14.73333 -4.98333,27.08333 -14.95,37.05 -9.96667,9.96667 -22.31667,14.95 -37.05,14.95 H 272 c -14.73333,0 -27.08333,-4.98333 -37.05,-14.95 C 224.98333,-620.91667 220,-633.26667 220,-648 V -752 H 116 Z m 401.05,-662.95 c 9.96667,-9.96667 14.95,-22.31667 14.95,-37.05 0,-14.73333 -4.98333,-27.08333 -14.95,-37.05 -9.96667,-9.96667 -22.31667,-14.95 -37.05,-14.95 -14.73333,0 -27.08333,4.98333 -37.05,14.95 -9.96667,9.96667 -14.95,22.31667 -14.95,37.05 0,14.73333 4.98333,27.08333 14.95,37.05 9.96667,9.96667 22.31667,14.95 37.05,14.95 14.73333,0 27.08333,-4.98333 37.05,-14.95 z"
     id="path1"
     style="fill:#502e15;fill-opacity:1;stroke-width:1.3"
     sodipodi:nodetypes="sssssscssscsssssssccccsssssscccsssssssss" />
  <path
     d="m 330.17008,-485.32891 c -18.86745,0 -34.70886,6.35563 -47.47214,19.11894 -12.7633,12.76327 -19.11893,28.60468 -19.11893,47.47213 v 203.01206 c 0,14.42806 4.7429,26.33296 14.17661,35.7667 9.43375,9.43373 21.33863,14.17659 35.76669,14.17659 14.42809,0 26.33297,-4.74286 35.76668,-14.17659 9.43375,-9.43374 14.17663,-21.33864 14.17663,-35.7667 V -385.4423 h 66.59107 v 69.82991 c 0,14.42806 4.74288,26.33296 14.17662,35.76671 9.43374,9.43371 21.33863,14.17659 35.76669,14.17659 14.42806,0 26.33295,-4.74288 35.76668,-14.17659 9.43375,-9.43375 14.17663,-21.33864 14.17663,-35.76671 v -69.82991 h 66.59107 v 169.71652 c 0,14.42806 4.74288,26.33296 14.17659,35.7667 9.43375,9.43373 21.33863,14.17659 35.76672,14.17659 14.42806,0 26.33293,-4.74286 35.76671,-14.17659 9.43364,-9.43374 14.17659,-21.33864 14.17659,-35.7667 v -203.01206 c 0,-18.86745 -6.35563,-34.70886 -19.11897,-47.47213 -12.76318,-12.76332 -28.60465,-19.11894 -47.4721,-19.11894 z"
     id="path5"
     style="fill:#44aa00;stroke-width:1.66478"
     sodipodi:nodetypes="ssssssssccsssssccsssssssss" />
</svg>
