<?xml version="1.0" encoding="UTF-8" standalone="no"?>
<svg
   height="24px"
   viewBox="0 -960 960 960"
   width="24px"
   fill="#1f1f1f"
   version="1.1"
   id="svg1"
   sodipodi:docname="icon.svg"
   xml:space="preserve"
   inkscape:version="1.4.3 (0d15f75042, 2025-12-25)"
   xmlns:inkscape="http://www.inkscape.org/namespaces/inkscape"
   xmlns:sodipodi="http://sodipodi.sourceforge.net/DTD/sodipodi-0.dtd"
   xmlns="http://www.w3.org/2000/svg"
   xmlns:svg="http://www.w3.org/2000/svg"><defs
     id="defs1" /><sodipodi:namedview
     id="namedview1"
     pagecolor="#ffffff"
     bordercolor="#000000"
     borderopacity="0.25"
     inkscape:showpageshadow="2"
     inkscape:pageopacity="0.0"
     inkscape:pagecheckerboard="0"
     inkscape:deskcolor="#d1d1d1"
     inkscape:zoom="14.166667"
     inkscape:cx="5.2941175"
     inkscape:cy="14.541176"
     inkscape:window-width="1707"
     inkscape:window-height="888"
     inkscape:window-x="0"
     inkscape:window-y="0"
     inkscape:window-maximized="1"
     inkscape:current-layer="svg1" /><rect
     style="fill:#d9b7c5;fill-opacity:1;stroke-width:41.5767"
     id="rect5"
     width="821.75171"
     height="633.92267"
     x="77.928642"
     y="-779.35242" /><path
     d="m 719.9594,-480 v 143.97565 H 575.98376 v 95.98376 h 239.9594 V -480 Z"
     style="fill:#8a4a64;fill-opacity:1;stroke-width:1.19991"
     id="path5" /><path
     d="M 144.05683,-719.9594 V -480 h 95.98376 v -143.97563 h 143.97565 v -95.98377 z"
     style="fill:#8a4a64;fill-opacity:1;stroke-width:1.19991"
     id="path4" /><path
     d="m 96.06496,-863.93504 c -26.398165,0 -49.007097,9.37929 -67.805787,28.17798 C 9.4604818,-816.95838 -4.9999917e-6,-794.34944 -4.9999917e-6,-767.95128 v 575.90256 c 0,26.39816 9.4604867999917,49.0071 28.2591779999917,67.80579 18.79869,18.79868 41.407622,28.17797 67.805787,28.17797 h 767.87008 c 26.39816,0 49.0071,-9.37929 67.80578,-28.17797 18.7987,-18.79869 28.25919,-41.40763 28.25918,-67.80579 v -575.90256 c 0,-26.39816 -9.46048,-49.0071 -28.25918,-67.80578 -18.79868,-18.79869 -41.40762,-28.17798 -67.80578,-28.17798 z m 0,95.98376 h 767.87008 v 575.90256 H 96.06496 Z"
     style="fill:#8a4a64;fill-opacity:1;stroke-width:1.19991"
     id="path2" /></svg>
