<?xml version="1.0" encoding="UTF-8" standalone="no"?>
<svg
   height="24px"
   viewBox="0 -960 960 960"
   width="24px"
   fill="#1f1f1f"
   version="1.1"
   id="svg1"
   sodipodi:docname="icon.svg"
   inkscape:version="1.4.2 (f4327f4, 2025-05-13)"
   xmlns:inkscape="http://www.inkscape.org/namespaces/inkscape"
   xmlns:sodipodi="http://sodipodi.sourceforge.net/DTD/sodipodi-0.dtd"
   xmlns="http://www.w3.org/2000/svg"
   xmlns:svg="http://www.w3.org/2000/svg">
  <defs
     id="defs1" />
  <sodipodi:namedview
     id="namedview1"
     pagecolor="#ffffff"
     bordercolor="#000000"
     borderopacity="0.25"
     inkscape:showpageshadow="2"
     inkscape:pageopacity="0.0"
     inkscape:pagecheckerboard="0"
     inkscape:deskcolor="#d1d1d1"
     inkscape:zoom="21.875"
     inkscape:cx="17.531429"
     inkscape:cy="8.0914286"
     inkscape:window-width="2560"
     inkscape:window-height="1334"
     inkscape:window-x="-11"
     inkscape:window-y="-11"
     inkscape:window-maximized="1"
     inkscape:current-layer="svg1" />
  <path
     style="fill:#d5f6ff;stroke-width:26.0572;stroke-linecap:square;paint-order:markers fill stroke"
     d="M 480,-792.68623 87.818985,-115.19939 H 872.18098 Z"
     id="path5" />
  <path
     d="M 480,-323.65688 Z"
     id="path2"
     style="stroke-width:1.30286" />
  <path
     d="m 575.47564,-440.36926 c -7.07228,0 -12.74667,3.51808 -16.99004,10.43271 l -110.31084,180.1919 -78.48564,-128.33228 c -4.24336,-6.91465 -9.91775,-10.43271 -16.99002,-10.43271 -7.07227,0 -12.74665,3.51809 -16.99003,10.43271 l -84.86725,138.66371 c -5.65781,8.64326 -6.31531,17.73894 -2.07195,27.24654 4.24336,9.50759 10.57526,14.28165 19.06198,14.28165 H 692.1681 c 8.48672,0 14.81868,-4.77406 19.06204,-14.28165 4.24336,-9.50761 3.58585,-18.60328 -2.07204,-27.24654 L 592.46566,-429.93655 c -4.24337,-6.91463 -9.91775,-10.43271 -16.99002,-10.43271 z"
     id="path6"
     style="fill:#666666;stroke-width:1.17276" />
  <path
     d="m 480,-625.38873 c -2.12512,0 -4.17607,0.53128 -6.15951,1.59384 -1.98344,1.06256 -3.62264,2.65639 -4.89773,4.78151 l -71.39051,123.25655 c -2.40845,4.25022 -2.40845,8.50045 0,12.75068 2.40846,4.25022 6.08205,6.37534 11.04064,6.37534 h 142.81422 c 4.95861,0 8.63218,-2.12512 11.04064,-6.37534 2.40845,-4.25023 2.40845,-8.50046 0,-12.75068 l -71.39053,-123.25655 c -1.27507,-2.12512 -2.91427,-3.71895 -4.89772,-4.78151 -1.98343,-1.06256 -4.03439,-1.59384 -6.1595,-1.59384 z m 63.96922,131.75702 c -165.97464,-161.50859 -165.97464,-161.50859 0,0 z"
     id="path7"
     sodipodi:nodetypes="ssccssssccssaa"
     style="fill:#d4aa00;stroke-width:0.212511" />
  <rect
     style="fill:#ecc52b;fill-opacity:1;stroke-width:0.248047;stroke-linecap:square;paint-order:markers fill stroke"
     id="rect1"
     width="960"
     height="960"
     x="2.8421709e-14"
     y="-5.6843419e-14"
     rx="84.373169"
     ry="84.373169"
     transform="scale(1,-1)" />
  <rect
     style="fill:#202124;stroke-width:7.93749;stroke-linecap:square;paint-order:markers fill stroke"
     id="rect18"
     width="194.99998"
     height="194.99998"
     x="509.99991"
     y="510"
     rx="84.374992"
     ry="84.374992"
     transform="scale(1,-1)" />
  <rect
     style="fill:#6200ea;stroke-width:12.058;stroke-linecap:square;paint-order:markers fill stroke"
     id="rect21"
     width="194.99998"
     height="449.99991"
     x="255.00005"
     y="254.99995"
     rx="84.374992"
     ry="84.374992"
     transform="scale(1,-1)" />
  <rect
     style="fill:#e65100;fill-opacity:1;stroke-width:7.93749;stroke-linecap:square;paint-order:markers fill stroke"
     id="rect27"
     width="194.99997"
     height="195"
     x="509.99991"
     y="765"
     rx="84.374992"
     ry="84.374992"
     transform="scale(1,-1)" />
  <rect
     style="fill:#2e7d32;fill-opacity:1;stroke-width:7.93749;stroke-linecap:square;paint-order:markers fill stroke"
     id="rect31"
     width="194.99998"
     height="194.99998"
     x="765"
     y="254.99995"
     rx="84.374992"
     ry="84.374992"
     transform="scale(1,-1)" />
  <rect
     style="fill:#1565c0;fill-opacity:1;stroke-width:7.93749;stroke-linecap:square;paint-order:markers fill stroke"
     id="rect33"
     width="194.99998"
     height="194.99998"
     x="765"
     y="510"
     rx="84.374992"
     ry="84.374992"
     transform="scale(1,-1)" />
  <rect
     style="fill:#202124;fill-opacity:1;stroke-width:7.93749;stroke-linecap:square;paint-order:markers fill stroke"
     id="rect34"
     width="194.99998"
     height="704.99994"
     x="2.8421709e-14"
     y="254.99995"
     rx="84.374992"
     ry="84.374992"
     transform="scale(1,-1)" />
  <rect
     style="fill:#6200ea;stroke-width:7.93749;stroke-linecap:square;paint-order:markers fill stroke"
     id="rect36"
     width="194.99998"
     height="194.99997"
     x="255.00005"
     y="765"
     rx="84.374992"
     ry="84.374992"
     transform="scale(1,-1)" />
  <rect
     style="fill:#202124;stroke-width:7.93749;stroke-linecap:square;paint-order:markers fill stroke"
     id="rect37"
     width="194.99998"
     height="194.99997"
     x="2.8421709e-14"
     y="-5.6843419e-14"
     rx="84.374992"
     ry="84.374992"
     transform="scale(1,-1)" />
  <rect
     style="fill:#2e7d32;fill-opacity:1;stroke-width:7.93749;stroke-linecap:square;paint-order:markers fill stroke"
     id="rect38"
     width="194.99998"
     height="194.99998"
     x="255.00005"
     y="3.9760111e-05"
     rx="84.374992"
     ry="84.374992"
     transform="scale(1,-1)" />
  <rect
     style="fill:#202124;stroke-width:7.93749;stroke-linecap:square;paint-order:markers fill stroke"
     id="rect39"
     width="194.99998"
     height="194.99998"
     x="509.99991"
     y="254.99995"
     rx="84.374992"
     ry="84.374992"
     transform="scale(1,-1)" />
</svg>
