<?xml version="1.0" encoding="UTF-8" standalone="no"?>
<svg
   height="24px"
   viewBox="0 -960 960 960"
   width="24px"
   fill="#1f1f1f"
   version="1.1"
   id="svg1"
   sodipodi:docname="icon.svg"
   inkscape:version="1.4.3 (0d15f75042, 2025-12-25)"
   xmlns:inkscape="http://www.inkscape.org/namespaces/inkscape"
   xmlns:sodipodi="http://sodipodi.sourceforge.net/DTD/sodipodi-0.dtd"
   xmlns="http://www.w3.org/2000/svg"
   xmlns:svg="http://www.w3.org/2000/svg">
  <defs
     id="defs1" />
  <sodipodi:namedview
     id="namedview1"
     pagecolor="#ffffff"
     bordercolor="#000000"
     borderopacity="0.25"
     inkscape:showpageshadow="2"
     inkscape:pageopacity="0.0"
     inkscape:pagecheckerboard="0"
     inkscape:deskcolor="#d1d1d1"
     inkscape:zoom="5.008673"
     inkscape:cx="-25.954978"
     inkscape:cy="25.156364"
     inkscape:window-width="1707"
     inkscape:window-height="888"
     inkscape:window-x="0"
     inkscape:window-y="0"
     inkscape:window-maximized="1"
     inkscape:current-layer="svg1" />
  <path
     d="M 284.48869,0 H 98.099545 Q 57.633482,0 28.816742,-28.816742 0,-57.633482 0,-98.099545 V -284.48869 q 58.85973,0 103.00453,-37.40045 44.14479,-37.40045 44.14479,-95.03394 0,-57.63348 -44.14479,-95.03393 Q 58.85973,-549.35747 0,-549.35747 v -186.38914 q 0,-40.46606 28.816742,-69.28281 28.81674,-28.81673 69.282803,-28.81673 H 294.29864 q 0,-51.50227 35.56109,-87.06335 35.56108,-35.56109 87.06335,-35.56109 51.50226,0 87.06334,35.56109 35.56109,35.56108 35.56109,87.06335 h 196.1991 q 40.46606,0 69.28281,28.81673 28.81673,28.81675 28.81673,69.28281 v 196.1991 q 51.50227,0 87.06335,35.56109 35.56109,35.56108 35.56109,87.06334 0,51.50227 -35.56109,87.06335 -35.56108,35.56109 -87.06335,35.56109 v 196.199095 q 0,40.466063 -28.81673,69.282803 Q 776.21267,0 735.74661,0 H 549.35747 q 0,-61.312216 -38.62671,-104.23076 -38.62669,-42.91856 -93.80768,-42.91856 -55.181,0 -93.80769,42.91856 Q 284.48869,-61.312216 284.48869,0 Z M 98.099545,-98.099545 H 202.33031 q 29.42987,-80.932125 94.42083,-114.040735 64.99094,-33.10859 120.17194,-33.10859 55.18099,0 120.17195,33.10859 64.99094,33.10861 94.42081,114.040735 H 735.74661 V -392.39819 h 98.09954 q 9.80996,0 17.16743,-7.35746 7.35746,-7.35747 7.35746,-17.16743 0,-9.80995 -7.35746,-17.16742 -7.35747,-7.35747 -17.16743,-7.35747 H 735.74661 V -735.74661 H 441.44797 v -98.09954 q 0,-9.80996 -7.35747,-17.16743 -7.35747,-7.35746 -17.16742,-7.35746 -9.80996,0 -17.16743,7.35746 -7.35746,7.35747 -7.35746,17.16743 v 98.09954 H 98.099545 v 107.9095 q 66.217205,24.52489 106.683265,82.15838 40.46606,57.63348 40.46606,128.75565 0,69.89593 -40.46606,127.52941 -40.46606,57.63349 -106.683265,83.38462 z M 416.92308,-416.92308 Z"
     id="path1"
     style="fill:#291b60;fill-opacity:1;stroke-width:1.22625" />
  <path
     style="fill:#cdc4ee;fill-opacity:1;stroke-width:1.73117"
     d="m 415.94365,-866.77781 c -18.70582,0.0318 -33.65584,17.75891 -31.53969,36.16857 -0.67296,28.34476 -0.23544,56.70346 -0.37278,85.0538 -94.82994,0 -189.65988,0 -284.489829,0 -15.202929,2.88854 -8.290662,21.44163 -9.808829,32.31402 0.381606,28.79846 -0.758554,57.84958 0.559363,86.49263 3.95238,11.37072 19.302665,10.74174 28.187525,17.26591 65.74104,34.1086 113.77975,102.96911 116.97898,177.76595 4.2666,52.96935 -12.51835,106.9473 -46.43724,147.88306 -24.90851,31.15842 -56.44005,55.23799 -93.425613,69.46993 -10.948603,8.53383 -3.823489,24.69047 -5.862983,36.67913 0.734806,27.3682 -1.47891,55.22587 1.118673,82.284864 5.943812,11.677187 22.274003,4.593022 32.926513,6.53215 26.27318,-0.377676 52.79769,0.756347 78.91538,-0.55916 11.48916,-4.249183 11.69459,-19.703144 17.94553,-29.171464 18.28962,-39.4916 49.78427,-73.42791 90.45698,-90.12362 34.23828,-16.88534 71.88123,-28.77755 110.47349,-26.31177 38.54875,-1.3263 76.01435,13.85057 109.44235,30.06634 43.4275,20.4974 73.80677,61.00447 90.51014,105.108407 4.86279,16.03025 24.35286,8.440589 36.69589,10.358723 26.56271,-0.501286 53.59178,1.966903 79.86132,-0.407111 11.78432,-5.864493 4.6671,-22.294929 6.61025,-32.955809 0,-86.75115 0,-173.50234 0,-260.25349 33.18615,-1.25518 66.70278,1.30326 99.69435,-2.67124 20.93361,-6.08605 30.63364,-35.82704 14.26857,-51.68483 -12.03632,-15.89228 -33.57515,-12.77693 -51.02156,-13.50816 -20.9781,-0.3826 -41.96101,-0.19621 -62.94136,-0.26977 0,-94.83221 0,-189.66439 0,-284.4966 -2.88855,-15.20292 -21.44163,-8.29066 -32.31404,-9.80881 -87.32817,0 -174.65639,0 -261.98461,0 -1.07516,-32.3444 2.28965,-65.07212 -2.23814,-97.19227 -3.33096,-13.89207 -17.94372,-24.77624 -32.20922,-24.03011 z"
     id="path4" />
  <path
     style="fill:#291b60;stroke-width:4.55654"
     d="m 328.99861,-402.81688 c -57.02092,-1.44572 -98.48261,74.23087 -61.0504,119.02152 21.42603,29.53769 61.99112,44.46686 95.25109,25.73727 50.07248,-23.07419 56.88305,-100.73321 10.092,-130.99129 -12.73557,-9.27861 -28.53627,-14.22136 -44.29269,-13.7675 z"
     id="path2" />
  <path
     style="fill:#291b60;stroke-width:4.55654"
     d="m 487.45773,-721.77663 c -12.71014,32.19295 0.9463,66.27536 0.19142,99.32706 -22.65634,1.91198 -39.87047,-16.99621 -61.04833,-22.10429 -18.98288,-9.85538 -47.03493,-4.92839 -50.98307,19.18848 -5.98824,22.83286 -19.62911,45.7036 -14.46748,69.93386 9.05851,16.76322 31.79394,19.41121 48.85726,23.78205 12.83485,4.96625 40.43883,2.54546 41.91977,17.32633 -11.02933,16.41905 -25.68099,30.34305 -38.09095,45.86015 -19.76926,14.09099 -22.10907,42.87141 1.29835,54.46662 17.68354,12.85182 34.74931,28.33714 56.02747,34.70418 19.45878,2.83193 30.7688,-17.20353 38.64546,-31.77163 5.94655,-13.6641 16.42456,-24.38398 22.73125,-37.70492 13.04541,-21.25711 20.9445,12.68336 28.63932,21.70779 9.44354,18.07536 18.79795,38.43215 37.85661,48.22516 32.64053,-2.04034 54.66082,-29.04032 78.18203,-48.34194 11.91492,-21.42166 -9.76263,-40.62614 -23.13568,-54.9212 -6.05041,-13.6451 -29.23734,-24.81365 -25.49522,-39.12013 14.14964,-5.3949 29.55863,-7.39498 44.3426,-11.06756 17.7218,-3.36461 37.06348,-8.20563 48.82132,-23.03465 -0.63311,-31.42588 -14.96606,-60.0794 -25.81171,-88.90856 -17.49887,-16.81003 -40.71928,0.12201 -58.38014,7.67332 -13.78299,3.97608 -41.67183,27.8584 -46.5589,3.46666 2.56652,-21.72378 5.01067,-43.16842 8.82013,-64.76442 5.16984,-29.00681 -27.0458,-30.75338 -47.34665,-28.49158 -21.72904,-0.82215 -43.95718,-2.27915 -65.01486,4.56922 z"
     id="path3" />
</svg>
