<?xml version="1.0" encoding="UTF-8" standalone="no"?>
<svg
   height="24px"
   viewBox="0 -960 960 960"
   width="24px"
   fill="#1f1f1f"
   version="1.1"
   id="svg1"
   sodipodi:docname="icon.svg"
   inkscape:version="1.4.3 (0d15f75042, 2025-12-25)"
   xmlns:inkscape="http://www.inkscape.org/namespaces/inkscape"
   xmlns:sodipodi="http://sodipodi.sourceforge.net/DTD/sodipodi-0.dtd"
   xmlns="http://www.w3.org/2000/svg"
   xmlns:svg="http://www.w3.org/2000/svg">
  <defs
     id="defs1" />
  <sodipodi:namedview
     id="namedview1"
     pagecolor="#ffffff"
     bordercolor="#000000"
     borderopacity="0.25"
     inkscape:showpageshadow="2"
     inkscape:pageopacity="0.0"
     inkscape:pagecheckerboard="0"
     inkscape:deskcolor="#d1d1d1"
     inkscape:zoom="28.333333"
     inkscape:cx="12"
     inkscape:cy="20.541177"
     inkscape:window-width="1707"
     inkscape:window-height="888"
     inkscape:window-x="0"
     inkscape:window-y="0"
     inkscape:window-maximized="1"
     inkscape:current-layer="svg1" />
  <path
     d="M 106.66667,0 Q 62.666667,0 31.333333,-31.333333 0,-62.666667 0,-106.66667 v -746.66666 q 0,-44 31.333333,-75.33334 Q 62.666667,-960 106.66667,-960 H 596 q 21.33333,0 40.66667,8 19.33333,8 34,22.66667 l 258.66666,258.66666 Q 944,-656 952,-636.66667 q 8,19.33334 8,40.66667 v 489.33333 q 0,44.000003 -31.33333,75.333337 Q 897.33333,0 853.33333,0 Z m 0,-106.66667 H 853.33333 V -596 L 596,-853.33333 H 106.66667 Z"
     id="path5"
     style="stroke-width:1.33333" />
  <path
     d="M 106.66667,-106.66667 V -853.33333 Z"
     id="path4"
     style="stroke-width:1.33333" />
  <path
     d="m 266.66667,-640 h 266.66666 q 22.66667,0 38,-15.33333 15.33334,-15.33334 15.33334,-38 0,-22.66667 -15.33334,-38 -15.33333,-15.33334 -38,-15.33334 H 266.66667 q -22.66667,0 -38,15.33334 -15.33334,15.33333 -15.33334,38 0,22.66666 15.33334,38 Q 244,-640 266.66667,-640 Z"
     id="path3"
     style="fill:#904a41;fill-opacity:1;stroke-width:1.33333" />
  <path
     d="m 266.66667,-426.66667 h 426.66666 q 22.66667,0 38,-15.33333 15.33334,-15.33333 15.33334,-38 0,-22.66667 -15.33334,-38 -15.33333,-15.33333 -38,-15.33333 H 266.66667 q -22.66667,0 -38,15.33333 -15.33334,15.33333 -15.33334,38 0,22.66667 15.33334,38 15.33333,15.33333 38,15.33333 z"
     id="path2"
     style="fill:#555a92;fill-opacity:1;stroke-width:1.33333" />
  <path
     d="m 266.66667,-213.33333 h 426.66666 q 22.66667,0 38,-15.33334 15.33334,-15.33333 15.33334,-38 0,-22.66666 -15.33334,-38 Q 716,-320 693.33333,-320 H 266.66667 q -22.66667,0 -38,15.33333 -15.33334,15.33334 -15.33334,38 0,22.66667 15.33334,38 15.33333,15.33334 38,15.33334 z"
     id="path1"
     style="fill:#49672d;fill-opacity:1;stroke-width:1.33333" />
</svg>
