<?xml version="1.0" encoding="UTF-8" standalone="no"?>
<svg
   height="24px"
   viewBox="0 -960 960 960"
   width="24px"
   fill="#1f1f1f"
   version="1.1"
   id="svg1"
   sodipodi:docname="icon.svg"
   inkscape:version="1.4.3 (0d15f75042, 2025-12-25)"
   xmlns:inkscape="http://www.inkscape.org/namespaces/inkscape"
   xmlns:sodipodi="http://sodipodi.sourceforge.net/DTD/sodipodi-0.dtd"
   xmlns="http://www.w3.org/2000/svg"
   xmlns:svg="http://www.w3.org/2000/svg">
  <defs
     id="defs1" />
  <sodipodi:namedview
     id="namedview1"
     pagecolor="#ffffff"
     bordercolor="#000000"
     borderopacity="0.25"
     inkscape:showpageshadow="2"
     inkscape:pageopacity="0.0"
     inkscape:pagecheckerboard="0"
     inkscape:deskcolor="#d1d1d1"
     inkscape:zoom="7.0833333"
     inkscape:cx="-16.447059"
     inkscape:cy="7.3411765"
     inkscape:window-width="1707"
     inkscape:window-height="888"
     inkscape:window-x="0"
     inkscape:window-y="0"
     inkscape:window-maximized="1"
     inkscape:current-layer="svg1" />
  <path
     d="m 0,-480 q 0,-99.6 37.8,-187.2 37.8,-87.6 102.6,-152.4 64.8,-64.8 152.4,-102.6 87.6,-37.8 187.2,-37.8 152.4,0 271.8,84 119.4,84 173.4,217.2 8.4,20.4 0.6,40.8 -7.8,20.4 -28.2,27.6 -19.2,6 -36.6,-3.6 -17.4,-9.6 -24.6,-28.8 -28.8,-72 -82.8,-127.2 -54,-55.2 -129.6,-85.2 v 19.2 q 0,39.6 -28.2,67.8 -28.2,28.2 -67.8,28.2 h -96 v 96 q 0,20.4 -13.8,34.2 -13.8,13.8 -34.2,13.8 h -96 v 96 h 48 q 20.4,0 34.2,13.8 13.8,13.8 13.8,34.2 v 96 H 336 L 105.6,-566.4 q -3.6,21.6 -6.6,43.2 -3,21.6 -3,43.2 0,146.4 96.6,255.6 96.6,109.2 243,126 19.2,2.4 31.8,16.2 12.6,13.8 12.6,34.2 0,20.4 -13.8,34.2 Q 452.4,0 433.2,-2.4 249.6,-20.4 124.8,-156 0,-291.6 0,-480 Z"
     id="path1"
     style="fill:#2c89a0;stroke-width:1.2" />
  <path
     d="m 720,-480 c -66.4,0 -122.98126,23.41876 -169.78126,70.21876 C 503.41874,-362.98124 480,-306.4 480,-240 c 0,66.4 23.41874,122.98126 70.21874,169.781256 C 597.01874,-23.41875 653.6,0 720,0 786.4,0 842.98124,-23.41875 889.78124,-70.218744 936.58126,-117.01874 960,-173.6 960,-240 960,-306.4 936.58124,-362.98124 889.78124,-409.78124 842.98124,-456.58124 786.4,-480 720,-480 Z m 0,96 c 6.4,0 11.98124,2.41876 16.78124,7.21876 C 741.58126,-371.98124 744,-366.4 744,-360 c 0,6.4 -2.41876,11.98126 -7.21876,16.78126 -4.8,4.8 -10.38124,7.21874 -16.78124,7.21874 -6.4,0 -11.98126,-2.41874 -16.78126,-7.21874 C 698.41876,-348.01874 696,-353.6 696,-360 c 0,-6.4 2.41874,-11.98124 7.21874,-16.78124 C 708.01874,-381.58124 713.6,-384 720,-384 Z m 0,96 c 6.4,0 11.98124,2.41876 16.78124,7.21876 C 741.58126,-275.98124 744,-270.4 744,-264 v 144 c 0,6.4 -2.41876,11.98126 -7.21876,16.78126 C 731.98124,-98.418744 726.4,-96 720,-96 c -6.4,0 -11.98126,-2.418756 -16.78126,-7.21874 C 698.41876,-108.01874 696,-113.6 696,-120 v -144 c 0,-6.4 2.41874,-11.98124 7.21874,-16.78124 C 708.01874,-285.58126 713.6,-288 720,-288 Z"
     id="path4"
     style="fill:#d45500;stroke-width:1.2" />
</svg>
