<?xml version="1.0" encoding="UTF-8" standalone="no"?>
<svg
   height="24px"
   viewBox="0 -960 960 960"
   width="24px"
   fill="#1f1f1f"
   version="1.1"
   id="svg1"
   sodipodi:docname="icon.svg"
   inkscape:version="1.4.3 (0d15f75042, 2025-12-25)"
   xmlns:inkscape="http://www.inkscape.org/namespaces/inkscape"
   xmlns:sodipodi="http://sodipodi.sourceforge.net/DTD/sodipodi-0.dtd"
   xmlns="http://www.w3.org/2000/svg"
   xmlns:svg="http://www.w3.org/2000/svg">
  <defs
     id="defs1" />
  <sodipodi:namedview
     id="namedview1"
     pagecolor="#ffffff"
     bordercolor="#000000"
     borderopacity="0.25"
     inkscape:showpageshadow="2"
     inkscape:pageopacity="0.0"
     inkscape:pagecheckerboard="0"
     inkscape:deskcolor="#d1d1d1"
     inkscape:zoom="20.034692"
     inkscape:cx="6.0395238"
     inkscape:cy="7.137619"
     inkscape:window-width="1707"
     inkscape:window-height="888"
     inkscape:window-x="0"
     inkscape:window-y="0"
     inkscape:window-maximized="1"
     inkscape:current-layer="svg1" />
  <rect
     style="fill:#d5f6ff;fill-opacity:1;stroke:none;stroke-width:17.5013;stroke-linecap:square;paint-order:markers fill stroke"
     id="rect1"
     width="746.66669"
     height="321.61349"
     x="106.66666"
     y="531.71973"
     transform="scale(1,-1)" />
  <rect
     style="fill:#80e5ff;fill-opacity:1;stroke:none;stroke-width:20.1199;stroke-linecap:square;paint-order:markers fill stroke"
     id="rect4"
     width="746.66669"
     height="425.05313"
     x="106.66666"
     y="-531.71973" />
  <path
     d="M 373.33332,-373.33332 Z"
     id="path3"
     style="stroke-width:1.33333" />
  <path
     d="M 106.66667,0 Q 62.666667,0 31.333332,-31.333332 0,-62.666667 0,-106.66667 v -746.66666 q 0,-44 31.333332,-75.33335 Q 62.666667,-960 106.66667,-960 H 320 q 22.66667,0 38,15.33333 15.33332,15.33333 15.33332,38 0,22.66667 -15.33332,38 -15.33333,15.33334 -38,15.33334 H 106.66667 v 746.66666 h 746.66666 v -177.33334 q 0,-22.66666 15.33334,-37.99999 15.33333,-15.33332 38,-15.33332 22.66667,0 38,15.33332 Q 960,-306.66667 960,-284.00001 v 177.33334 q 0,44.000003 -31.33332,75.333338 Q 897.33333,0 853.33333,0 Z"
     id="path2"
     style="stroke-width:1.33333" />
  <path
     d="M 440,-266.66668 352.00001,-384 Q 340,-400.00001 320,-400.00001 q -20,0 -32,16.00001 l -96,128 q -10.66667,13.33333 -2.66667,28 8.00001,14.66667 24,14.66667 h 533.33334 q 15.99999,0 24.00001,-14.66667 7.99999,-14.66667 -2.66668,-28 L 636,-432.00001 q -14.66667,-2.66666 -30,-6.66666 -15.33332,-4 -30,-9.33333 z"
     id="path1"
     style="fill:#333333;stroke-width:1.33333" />
  <path
     d="m 541.44712,-623.93463 v -96.92272 c -7.90505,-2.40587 -15.29454,-6.0147 -22.16848,-10.82648 -6.87396,-4.81177 -13.23238,-10.13908 -19.07525,-15.98195 -22.68404,-22.68404 -34.02606,-50.17985 -34.02606,-82.48744 0,-32.30759 11.34202,-59.8034 34.02606,-82.48744 22.68406,-22.68401 50.17988,-34.02601 82.48745,-34.02601 32.30758,0 59.80339,11.342 82.48744,34.02601 22.68405,22.68404 34.02608,50.17985 34.02608,82.48744 0,32.30759 -11.34203,59.8034 -34.02608,82.48744 -5.84286,5.84287 -12.20127,11.17018 -19.07523,15.98195 -6.87395,4.81176 -14.26344,8.42059 -22.16848,10.82648 v 96.92272 h 96.92273 c 2.40589,-7.90504 6.01472,-15.29453 10.82649,-22.16848 4.81176,-6.87395 10.13907,-13.23236 15.98193,-19.07522 22.68404,-22.68405 50.17986,-34.02607 82.48745,-34.02607 32.30757,-1e-5 59.80338,11.34202 82.48743,34.02607 22.68405,22.68404 34.02607,50.17985 34.02607,82.48742 0,32.30759 -11.34202,59.80341 -34.02607,82.48746 -22.68405,22.68404 -50.17986,34.02606 -82.48743,34.02606 -32.30759,0 -59.8034,-11.34202 -82.48745,-34.02606 -5.84286,-5.84287 -11.17017,-12.20128 -15.98193,-19.07524 -4.81178,-6.87393 -8.42061,-14.26343 -10.82649,-22.1685 l -451.6187,3e-5 c -18.55969,-2e-5 -31.19059,-8.50654 -37.89269,-25.51956 -6.70211,-17.01304 -3.5229,-32.04981 9.53762,-45.11032 3.78067,-3.78067 8.24873,-6.70211 13.40419,-8.76431 5.15547,-2.06219 10.48279,-3.09327 15.98195,-3.09326 z m 0,123.73118 h 82.48745 l -10e-6,229.93373 c 10e-6,5.49917 -1.03108,10.82649 -3.09326,15.98196 -2.0622,5.15545 -4.98364,9.62351 -8.76431,13.40419 -13.06051,13.06051 -28.09728,16.06786 -45.11031,9.02206 -17.01304,-7.0458 -25.51956,-19.84854 -25.51956,-38.40821 z m 230.44928,-82.48744 c 10e-6,16.15379 5.67102,29.90169 17.01305,41.2437 11.34202,11.34203 25.08993,17.01304 41.24372,17.01304 16.15377,0 29.90167,-5.67101 41.2437,-17.01304 11.34203,-11.34201 17.01305,-25.08992 17.01305,-41.24372 0,-16.15379 -5.67102,-29.90169 -17.01305,-41.24372 -11.34203,-11.34201 -25.08993,-17.01302 -41.2437,-17.01302 -16.15379,0 -29.9017,5.67101 -41.24372,17.01302 -11.34203,11.34203 -17.01305,25.08994 -17.01305,41.24374 z M 524.43408,-830.15322 c 10e-6,16.1538 5.67102,29.90171 17.01304,41.24373 11.34203,11.34201 25.08993,17.01302 41.24372,17.01304 16.1538,0 29.90171,-5.67101 41.24373,-17.01304 11.34202,-11.34202 17.01303,-25.08993 17.01303,-41.24373 0,-16.15379 -5.67101,-29.90169 -17.01303,-41.24372 -11.34202,-11.34205 -25.08993,-17.01307 -41.24373,-17.01307 -16.15379,0 -29.90169,5.67102 -41.24372,17.01307 -11.34203,11.34203 -17.01304,25.08993 -17.01304,41.24372 z"
     id="path1-5"
     style="fill:#d45500;fill-opacity:1;stroke:#d45500;stroke-width:26.6667"
     sodipodi:nodetypes="ccssssssssscccsssssssssccssscccccsssscssssssssssssssssss" />
</svg>
