<?xml version="1.0" encoding="UTF-8" standalone="no"?>
<svg
   height="24px"
   viewBox="0 -960 960 960"
   width="24px"
   fill="#1f1f1f"
   version="1.1"
   id="svg1"
   sodipodi:docname="icon.svg"
   inkscape:version="1.4.2 (f4327f4, 2025-05-13)"
   xmlns:inkscape="http://www.inkscape.org/namespaces/inkscape"
   xmlns:sodipodi="http://sodipodi.sourceforge.net/DTD/sodipodi-0.dtd"
   xmlns="http://www.w3.org/2000/svg"
   xmlns:svg="http://www.w3.org/2000/svg">
  <defs
     id="defs1" />
  <sodipodi:namedview
     id="namedview1"
     pagecolor="#ffffff"
     bordercolor="#000000"
     borderopacity="0.25"
     inkscape:showpageshadow="2"
     inkscape:pageopacity="0.0"
     inkscape:pagecheckerboard="0"
     inkscape:deskcolor="#d1d1d1"
     inkscape:zoom="43.75"
     inkscape:cx="11.988571"
     inkscape:cy="14.742857"
     inkscape:window-width="2560"
     inkscape:window-height="1334"
     inkscape:window-x="-11"
     inkscape:window-y="-11"
     inkscape:window-maximized="1"
     inkscape:current-layer="svg1" />
  <rect
     style="fill:#abc837;stroke-width:30;stroke-linecap:square;paint-order:markers fill stroke"
     id="rect1"
     width="240"
     height="240"
     x="360"
     y="-600" />
  <path
     d="M 240,-240 H 60 Q 34.5,-240 17.25,-257.25 0,-274.5 0,-300 0,-325.5 17.25,-342.75 34.5,-360 60,-360 H 240 V -600 H 60 Q 34.5,-600 17.25,-617.25 0,-634.5 0,-660 0,-685.5 17.25,-702.75 34.5,-720 60,-720 h 180 v -180 q 0,-25.5 17.25,-42.75 Q 274.5,-960 300,-960 q 25.5,0 42.75,17.25 Q 360,-925.5 360,-900 v 180 h 240 v -180 q 0,-25.5 17.25,-42.75 Q 634.5,-960 660,-960 q 25.5,0 42.75,17.25 Q 720,-925.5 720,-900 v 180 h 180 q 25.5,0 42.75,17.25 17.25,17.25 17.25,42.75 0,25.5 -17.25,42.75 Q 925.5,-600 900,-600 H 720 v 240 h 180 q 25.5,0 42.75,17.25 17.25,17.25 17.25,42.75 0,25.5 -17.25,42.75 Q 925.5,-240 900,-240 H 720 v 180 q 0,25.5 -17.25,42.75 Q 685.5,0 660,0 634.5,0 617.25,-17.25 600,-34.5 600,-60 V -240 H 360 v 180 q 0,25.5 -17.25,42.75 Q 325.5,0 300,0 274.5,0 257.25,-17.25 240,-34.5 240,-60 Z M 360,-360 H 600 V -600 H 360 Z"
     id="path1"
     style="stroke-width:1.5" />
</svg>
